<svg width="240" height="92" viewBox="0 0 240 92" fill="none" xmlns="http://www.w3.org/2000/svg">
<path d="M0.930158 35C0.930158 33.72 1.02616 32.52 1.21816 31.4C1.44216 30.28 1.82616 29.208 2.37016 28.184C2.94616 27.16 3.74616 26.184 4.77016 25.256C5.79416 24.296 7.12216 23.368 8.75416 22.472C9.71416 21.928 10.6742 21.416 11.6342 20.936C12.6262 20.456 13.5382 19.944 14.3702 19.4C15.2342 18.856 15.9222 18.264 16.4342 17.624C16.9462 16.952 17.2022 16.184 17.2022 15.32C17.2022 14.584 16.9782 13.88 16.5302 13.208C16.1142 12.504 15.4742 11.944 14.6102 11.528C13.7782 11.08 12.7382 10.856 11.4902 10.856C10.5302 10.856 9.65016 10.984 8.85016 11.24C8.08216 11.496 7.37816 11.832 6.73816 12.248C6.13016 12.632 5.58616 13.048 5.10616 13.496C4.65816 13.912 4.27416 14.296 3.95416 14.648L1.31416 11.672C1.57016 11.384 2.00216 11 2.61016 10.52C3.21816 10.008 3.98616 9.496 4.91416 8.984C5.84216 8.472 6.91416 8.04 8.13016 7.688C9.37816 7.304 10.7382 7.112 12.2102 7.112C14.1942 7.112 15.8902 7.464 17.2982 8.168C18.7382 8.84 19.8422 9.768 20.6102 10.952C21.3782 12.104 21.7622 13.4 21.7622 14.84C21.7622 16.088 21.4902 17.176 20.9462 18.104C20.4342 19.032 19.7622 19.848 18.9302 20.552C18.1302 21.256 17.2822 21.864 16.3862 22.376C15.5222 22.856 14.7382 23.272 14.0342 23.624C12.5942 24.328 11.3622 24.968 10.3382 25.544C9.31416 26.12 8.46616 26.696 7.79416 27.272C7.15416 27.816 6.62616 28.392 6.21016 29C5.82616 29.608 5.53816 30.328 5.34616 31.16H22.2902V35H0.930158ZM51.4337 20.936C51.4337 23.752 50.9057 26.264 49.8497 28.472C48.7937 30.648 47.3537 32.36 45.5297 33.608C43.7057 34.856 41.6257 35.48 39.2897 35.48C36.9537 35.48 34.8737 34.856 33.0497 33.608C31.2257 32.36 29.7857 30.648 28.7297 28.472C27.6737 26.264 27.1457 23.752 27.1457 20.936C27.1457 18.12 27.6737 15.624 28.7297 13.448C29.7857 11.24 31.2257 9.512 33.0497 8.264C34.8737 6.984 36.9537 6.344 39.2897 6.344C41.6257 6.344 43.7057 6.984 45.5297 8.264C47.3537 9.512 48.7937 11.24 49.8497 13.448C50.9057 15.624 51.4337 18.12 51.4337 20.936ZM47.1617 20.936C47.1617 18.824 46.8257 16.968 46.1537 15.368C45.4817 13.768 44.5537 12.52 43.3697 11.624C42.1857 10.728 40.8257 10.28 39.2897 10.28C37.7217 10.28 36.3457 10.728 35.1617 11.624C33.9777 12.52 33.0497 13.768 32.3777 15.368C31.7057 16.968 31.3697 18.824 31.3697 20.936C31.3697 23.048 31.7057 24.904 32.3777 26.504C33.0497 28.072 33.9777 29.304 35.1617 30.2C36.3457 31.096 37.7217 31.544 39.2897 31.544C40.8257 31.544 42.1857 31.096 43.3697 30.2C44.5537 29.304 45.4817 28.072 46.1537 26.504C46.8257 24.904 47.1617 23.048 47.1617 20.936ZM74.486 31.16V35H57.254V31.16H64.07V12.44C63.782 12.824 63.334 13.24 62.726 13.688C62.118 14.104 61.43 14.504 60.662 14.888C59.894 15.272 59.126 15.592 58.358 15.848C57.59 16.072 56.886 16.184 56.246 16.184V12.152C56.95 12.152 57.718 11.96 58.55 11.576C59.414 11.16 60.246 10.68 61.046 10.136C61.846 9.592 62.518 9.08 63.062 8.6C63.638 8.12 63.974 7.784 64.07 7.592H68.39V31.16H74.486ZM77.7114 35C77.7114 33.72 77.8074 32.52 77.9994 31.4C78.2234 30.28 78.6074 29.208 79.1514 28.184C79.7274 27.16 80.5274 26.184 81.5514 25.256C82.5754 24.296 83.9034 23.368 85.5354 22.472C86.4954 21.928 87.4554 21.416 88.4154 20.936C89.4074 20.456 90.3194 19.944 91.1514 19.4C92.0154 18.856 92.7034 18.264 93.2154 17.624C93.7274 16.952 93.9834 16.184 93.9834 15.32C93.9834 14.584 93.7594 13.88 93.3114 13.208C92.8954 12.504 92.2554 11.944 91.3914 11.528C90.5594 11.08 89.5194 10.856 88.2714 10.856C87.3114 10.856 86.4314 10.984 85.6314 11.24C84.8634 11.496 84.1594 11.832 83.5194 12.248C82.9114 12.632 82.3674 13.048 81.8874 13.496C81.4394 13.912 81.0554 14.296 80.7354 14.648L78.0954 11.672C78.3514 11.384 78.7834 11 79.3914 10.52C79.9994 10.008 80.7674 9.496 81.6954 8.984C82.6234 8.472 83.6954 8.04 84.9114 7.688C86.1594 7.304 87.5194 7.112 88.9914 7.112C90.9754 7.112 92.6714 7.464 94.0794 8.168C95.5194 8.84 96.6234 9.768 97.3914 10.952C98.1594 12.104 98.5434 13.4 98.5434 14.84C98.5434 16.088 98.2714 17.176 97.7274 18.104C97.2154 19.032 96.5434 19.848 95.7114 20.552C94.9114 21.256 94.0634 21.864 93.1674 22.376C92.3034 22.856 91.5194 23.272 90.8154 23.624C89.3754 24.328 88.1434 24.968 87.1194 25.544C86.0954 26.12 85.2474 26.696 84.5754 27.272C83.9354 27.816 83.4074 28.392 82.9914 29C82.6074 29.608 82.3194 30.328 82.1274 31.16H99.0714V35H77.7114ZM131.236 35.24C128.996 35.24 126.9 34.76 124.948 33.8C123.028 32.808 121.348 31.496 119.908 29.864C118.468 28.2 117.348 26.344 116.548 24.296C115.748 22.216 115.348 20.072 115.348 17.864C115.348 15.56 115.748 13.384 116.548 11.336C117.348 9.256 118.452 7.416 119.86 5.816C121.3 4.216 122.98 2.968 124.9 2.072C126.852 1.144 128.964 0.679998 131.236 0.679998C134.532 0.679998 137.252 1.368 139.396 2.744C141.54 4.12 143.156 5.912 144.244 8.12L140.932 10.424C139.94 8.44 138.58 6.968 136.852 6.008C135.124 5.048 133.22 4.568 131.14 4.568C129.412 4.568 127.844 4.936 126.436 5.672C125.028 6.408 123.812 7.416 122.788 8.696C121.796 9.944 121.028 11.368 120.484 12.968C119.972 14.568 119.716 16.232 119.716 17.96C119.716 19.784 120.004 21.512 120.58 23.144C121.188 24.744 122.036 26.168 123.124 27.416C124.212 28.632 125.476 29.592 126.916 30.296C128.356 31 129.908 31.352 131.572 31.352C133.524 31.352 135.38 30.856 137.14 29.864C138.9 28.872 140.564 27.352 142.132 25.304V29.768C139.06 33.416 135.428 35.24 131.236 35.24ZM141.604 21.272H134.26V18.008H145.252V35H141.604V21.272ZM151.821 35V0.919998H166.413C167.917 0.919998 169.293 1.24 170.541 1.88C171.789 2.488 172.877 3.32 173.805 4.376C174.733 5.4 175.453 6.568 175.965 7.88C176.477 9.16 176.733 10.472 176.733 11.816C176.733 13.384 176.429 14.872 175.821 16.28C175.245 17.688 174.413 18.888 173.325 19.88C172.269 20.872 171.021 21.56 169.581 21.944L177.837 35H172.941L165.165 22.76H156.141V35H151.821ZM156.141 18.92H166.461C167.645 18.92 168.669 18.6 169.533 17.96C170.429 17.288 171.117 16.408 171.597 15.32C172.109 14.232 172.365 13.064 172.365 11.816C172.365 10.536 172.077 9.368 171.501 8.312C170.925 7.224 170.173 6.36 169.245 5.72C168.317 5.08 167.293 4.76 166.173 4.76H156.141V18.92ZM206.504 31.16V35H183.368V0.919998H206.072V4.76H187.688V15.8H203.672V19.4H187.688V31.16H206.504ZM213.727 0.919998L224.047 18.68L234.463 0.919998H239.167L226.207 22.568V35H221.887V22.472L208.975 0.919998H213.727ZM41.6745 56.92V91H37.3545V75.496H18.5865V91H14.2665V56.92H18.5865V71.656H37.3545V56.92H41.6745ZM51.1406 56.92L61.4606 74.68L71.8766 56.92H76.5806L63.6206 78.568V91H59.3006V78.472L46.3886 56.92H51.1406ZM95.3617 91.24C92.6417 91.24 90.3537 90.776 88.4977 89.848C86.6417 88.888 85.1537 87.608 84.0337 86.008C82.9137 84.376 82.0977 82.536 81.5857 80.488C81.0737 78.44 80.8177 76.328 80.8177 74.152V56.92H85.1377V74.152C85.1377 75.816 85.2977 77.448 85.6177 79.048C85.9697 80.616 86.5297 82.024 87.2977 83.272C88.0657 84.52 89.1057 85.512 90.4177 86.248C91.7297 86.984 93.3617 87.352 95.3137 87.352C97.2977 87.352 98.9457 86.984 100.258 86.248C101.57 85.48 102.61 84.472 103.378 83.224C104.146 81.944 104.69 80.52 105.01 78.952C105.362 77.384 105.538 75.784 105.538 74.152V56.92H109.858V74.152C109.858 76.456 109.586 78.648 109.042 80.728C108.53 82.776 107.698 84.584 106.546 86.152C105.394 87.72 103.89 88.968 102.034 89.896C100.21 90.792 97.9857 91.24 95.3617 91.24ZM121.852 64.888V91H117.532V56.92H121.18L142.012 83.56V56.968H146.332V91H142.396L121.852 64.888ZM154.47 91V56.92H166.278C169.926 56.92 172.966 57.688 175.398 59.224C177.862 60.728 179.702 62.776 180.918 65.368C182.134 67.928 182.742 70.776 182.742 73.912C182.742 77.368 182.07 80.376 180.726 82.936C179.382 85.496 177.478 87.48 175.014 88.888C172.55 90.296 169.638 91 166.278 91H154.47ZM178.374 73.912C178.374 71.352 177.894 69.08 176.934 67.096C176.006 65.112 174.646 63.56 172.854 62.44C171.062 61.32 168.87 60.76 166.278 60.76H158.79V87.16H166.278C168.902 87.16 171.11 86.584 172.902 85.432C174.694 84.248 176.054 82.664 176.982 80.68C177.91 78.664 178.374 76.408 178.374 73.912ZM197.978 56.92H201.626L215.546 91H210.938L206.906 81.016H192.602L188.618 91H184.01L197.978 56.92ZM205.946 77.656L199.802 61.912L193.466 77.656H205.946ZM220.095 91V56.92H224.415V91H220.095Z" fill="black"/>
</svg>
