<svg width="1230" height="1013" viewBox="0 0 1230 1013" fill="none" xmlns="http://www.w3.org/2000/svg">
<mask id="mask0_411_2205" style="mask-type:luminance" maskUnits="userSpaceOnUse" x="0" y="0" width="1224" height="1013">
<path d="M0.603516 0.452759H1223.49V1012.98H0.603516V0.452759Z" fill="white"/>
</mask>
<g mask="url(#mask0_411_2205)">
<path d="M412.536 132.709H0.720703V7.88662H412.536C432.206 28.6907 451.877 49.4947 471.547 70.2987C451.877 91.1009 432.206 111.905 412.536 132.709Z" fill="#02A64F"/>
<path d="M412.536 132.709H0.720703V7.88662H412.536C432.206 28.6907 451.877 49.4947 471.547 70.2987C451.877 91.1009 432.206 111.905 412.536 132.709Z" fill="#02A64F"/>
<path d="M527.758 277.742H0.720703V152.92H527.758C549.861 173.724 568.172 194.528 590.275 215.332C568.172 236.134 549.861 256.938 527.758 277.742Z" fill="#4EB748"/>
<path d="M666.036 420.582H0.720703V295.76H666.036C685.272 316.564 704.51 337.368 723.747 358.172C704.51 378.974 685.272 399.778 666.036 420.582Z" fill="#A6CE39"/>
<path d="M787.794 566.566H0.720703V441.744H787.794C807.602 462.548 827.413 483.352 847.222 504.156C827.413 524.958 807.602 545.762 787.794 566.566Z" fill="#D1C51C"/>
<path d="M920.705 712.166H0.720703V587.344H920.705C940.821 608.148 960.937 628.952 981.055 649.756C960.937 670.558 940.821 691.362 920.705 712.166Z" fill="#FCB916"/>
<path d="M1037.01 856.971H0.720703V732.148H1037.01C1058.19 752.952 1079.37 773.756 1100.55 794.56C1079.37 815.363 1058.19 836.167 1037.01 856.971Z" fill="#F36103"/>
<path d="M1166.6 997.842H0.72168V873.019H1166.6C1188.66 893.823 1210.72 914.628 1232.79 935.432C1210.72 956.234 1188.66 977.038 1166.6 997.842Z" fill="#F36103"/>
<path d="M376.155 73.8486H389.957C387.614 67.6023 385.268 61.356 382.925 55.1097C380.667 61.356 378.411 67.6023 376.155 73.8486ZM364.407 90.3828L380.043 50.1175H385.847L402.51 90.3828H396.373L391.624 78.1882H374.6L370.127 90.3828H364.407Z" fill="white"/>
<path d="M479.66 200.059H489.352C491.017 200.059 492.185 199.999 492.858 199.874C494.045 199.663 495.036 199.312 495.833 198.818C496.629 198.326 497.283 197.607 497.797 196.664C498.311 195.723 498.568 194.635 498.568 193.404C498.568 191.959 498.195 190.705 497.452 189.639C496.708 188.574 495.677 187.825 494.357 187.393C493.04 186.961 491.14 186.746 488.662 186.746H479.66V200.059ZM479.66 182.177H488.078C490.363 182.177 491.999 182.026 492.99 181.728C494.301 181.339 495.288 180.696 495.952 179.798C496.616 178.901 496.947 177.775 496.947 176.417C496.947 175.132 496.638 174.001 496.018 173.024C495.398 172.045 494.513 171.378 493.364 171.015C492.211 170.655 490.238 170.474 487.441 170.474H479.66V182.177ZM474.509 204.629V165.904H489.113C492.088 165.904 494.473 166.297 496.27 167.079C498.066 167.864 499.475 169.069 500.493 170.699C501.511 172.328 502.019 174.031 502.019 175.81C502.019 177.465 501.568 179.023 500.665 180.485C499.763 181.946 498.4 183.127 496.576 184.025C498.931 184.711 500.741 185.882 502.008 187.538C503.272 189.194 503.905 191.148 503.905 193.404C503.905 195.218 503.521 196.902 502.751 198.462C501.979 200.02 501.029 201.223 499.896 202.068C498.762 202.913 497.342 203.552 495.633 203.982C493.923 204.414 491.83 204.629 489.352 204.629H474.509Z" fill="white"/>
<path d="M500.84 247.292L506.228 248.646C505.098 253.048 503.066 256.405 500.131 258.715C497.196 261.027 493.61 262.184 489.369 262.184C484.982 262.184 481.412 261.293 478.663 259.517C475.914 257.74 473.821 255.166 472.385 251.796C470.95 248.426 470.233 244.806 470.233 240.938C470.233 236.721 471.043 233.042 472.664 229.902C474.283 226.761 476.589 224.376 479.579 222.746C482.568 221.117 485.862 220.3 489.453 220.3C493.527 220.3 496.951 221.332 499.729 223.395C502.506 225.458 504.44 228.359 505.534 232.097L500.229 233.342C499.285 230.394 497.914 228.248 496.119 226.903C494.321 225.56 492.063 224.887 489.343 224.887C486.212 224.887 483.596 225.634 481.495 227.125C479.393 228.617 477.918 230.62 477.066 233.134C476.215 235.648 475.789 238.239 475.789 240.91C475.789 244.354 476.293 247.362 477.301 249.931C478.31 252.499 479.88 254.419 482.009 255.69C484.138 256.961 486.444 257.597 488.926 257.597C491.944 257.597 494.498 256.731 496.591 255C498.682 253.269 500.098 250.7 500.84 247.292Z" fill="white"/>
<path d="M614.09 347.942H622.783C625.468 347.942 627.574 347.693 629.101 347.195C630.629 346.699 631.846 345.999 632.754 345.096C634.032 343.825 635.026 342.118 635.738 339.972C636.451 337.825 636.808 335.225 636.808 332.167C636.808 327.932 636.11 324.676 634.711 322.402C633.313 320.126 631.615 318.602 629.614 317.829C628.172 317.276 625.847 317.001 622.645 317.001H614.09V347.942ZM608.702 352.721V312.222H622.728C625.895 312.222 628.31 312.414 629.977 312.801C632.309 313.334 634.299 314.302 635.947 315.701C638.095 317.506 639.701 319.813 640.766 322.623C641.83 325.431 642.363 328.641 642.363 332.25C642.363 335.326 642.003 338.052 641.28 340.428C640.558 342.802 639.633 344.769 638.503 346.325C637.373 347.881 636.137 349.107 634.794 349.999C633.452 350.893 631.833 351.57 629.935 352.03C628.037 352.491 625.857 352.721 623.394 352.721H608.702Z" fill="white"/>
<path d="M608.812 409.299V368.798H638.251V373.579H614.201V385.983H636.725V390.733H614.201V404.52H639.195V409.299H608.812Z" fill="white"/>
<path d="M740.284 496.73V456.229H764.977V461.01H745.128V473.552H762.306V478.331H745.128V496.73H740.284Z" fill="white"/>
<path d="M752.894 537.428V532.676L768.399 532.649V547.678C766.018 549.777 763.562 551.356 761.033 552.416C758.502 553.474 755.907 554.004 753.243 554.004C749.648 554.004 746.381 553.151 743.444 551.448C740.506 549.745 738.287 547.282 736.79 544.059C735.292 540.836 734.543 537.234 734.543 533.256C734.543 529.315 735.288 525.637 736.778 522.22C738.267 518.804 740.411 516.266 743.207 514.608C746.004 512.95 749.223 512.122 752.869 512.122C755.516 512.122 757.909 512.598 760.047 513.544C762.186 514.493 763.862 515.815 765.077 517.509C766.293 519.204 767.216 521.414 767.849 524.14L763.479 525.466C762.931 523.402 762.248 521.782 761.433 520.604C760.616 519.425 759.452 518.482 757.937 517.773C756.422 517.064 754.741 516.709 752.894 516.709C750.679 516.709 748.766 517.081 747.151 517.827C745.538 518.572 744.235 519.553 743.243 520.769C742.254 521.986 741.484 523.321 740.934 524.775C740.003 527.28 739.537 529.998 739.537 532.925C739.537 536.534 740.098 539.556 741.222 541.987C742.345 544.418 743.981 546.222 746.127 547.401C748.275 548.58 750.556 549.17 752.968 549.17C755.067 549.17 757.112 548.723 759.111 547.829C761.107 546.937 762.622 545.983 763.655 544.97V537.428H752.894Z" fill="white"/>
<path d="M867.397 641.721V601.22H872.786V617.852H893.948V601.22H899.337V641.721H893.948V622.631H872.786V641.721H867.397Z" fill="white"/>
<path d="M880.785 659.964H886.173V696.129H880.785V659.964Z" fill="white"/>
<path d="M989.371 774.889L994.231 774.225C994.361 777.32 994.944 779.438 995.981 780.581C997.018 781.722 998.453 782.293 1000.29 782.293C1001.64 782.293 1002.8 781.984 1003.79 781.367C1004.77 780.749 1005.44 779.911 1005.81 778.853C1006.18 777.793 1006.37 776.105 1006.37 773.784V745.881H1011.76V773.48C1011.76 776.869 1011.34 779.493 1010.52 781.354C1009.7 783.214 1008.39 784.632 1006.6 785.609C1004.82 786.584 1002.72 787.072 1000.31 787.072C996.741 787.072 994.005 786.05 992.107 784.006C990.209 781.961 989.297 778.923 989.371 774.889Z" fill="white"/>
<path d="M987.146 842.957V802.456H992.535V822.541L1012.75 802.456H1020.06L1002.98 818.868L1020.81 842.957H1013.7L999.199 822.459L992.535 828.924V842.957H987.146Z" fill="white"/>
<path d="M1120.08 927.393V891.948H1125.47V923.21H1145.52V927.393H1120.08Z" fill="white"/>
<path d="M1111.21 984.805V947.242H1119.32L1128.95 973.838C1129.84 976.316 1130.49 978.168 1130.9 979.398C1131.36 978.032 1132.08 976.026 1133.06 973.378L1142.81 947.242H1150.06V984.805H1144.87V953.366L1133.04 984.805H1128.18L1116.4 952.828V984.805H1111.21Z" fill="white"/>
<path d="M47.9465 68.9942C47.9465 76.5305 48.8319 81.5453 50.6065 84.0385C52.3792 86.5336 54.5671 87.7803 57.1684 87.7803C59.7696 87.7803 61.9575 86.528 63.7322 84.0234C65.5049 81.5189 66.3922 76.5079 66.3922 68.9942C66.3922 61.439 65.5049 56.4186 63.7322 53.9348C61.9575 51.451 59.7507 50.2081 57.1058 50.2081C54.5027 50.2081 52.4266 51.3039 50.8738 53.4954C48.9229 56.2941 47.9465 61.4598 47.9465 68.9942ZM42.124 68.9942C42.124 63.5683 42.6852 59.2004 43.8076 55.8905C44.93 52.5826 46.5985 50.0308 48.8129 48.2354C51.0255 46.44 53.8107 45.5423 57.1684 45.5423C59.6445 45.5423 61.8154 46.0402 63.6848 47.0303C65.5523 48.0223 67.0937 49.4519 68.3109 51.319C69.5281 53.1879 70.4836 55.4643 71.1757 58.1461C71.8677 60.828 72.2146 64.4434 72.2146 68.9942C72.2146 74.3786 71.6572 78.7276 70.5462 82.0356C69.4333 85.3436 67.7705 87.901 65.558 89.7058C63.3435 91.5107 60.547 92.4141 57.1684 92.4141C52.7205 92.4141 49.2262 90.828 46.6876 87.6558C43.6446 83.8348 42.124 77.6149 42.124 68.9942Z" fill="white"/>
<path d="M102.042 71.5643V66.3044L132.605 53.4666V59.0717L108.369 68.9655L132.605 78.9535V84.5586L102.042 71.5643Z" fill="white"/>
<path d="M185.293 91.6309H179.628V55.7184C178.263 57.014 176.475 58.3078 174.261 59.6016C172.046 60.8953 170.059 61.8666 168.296 62.5135V57.065C171.464 55.5826 174.234 53.789 176.606 51.6786C178.976 49.572 180.656 47.5258 181.641 45.5417H185.293V91.6309Z" fill="white"/>
<path d="M210.177 68.9942C210.177 76.5305 211.062 81.5453 212.837 84.0385C214.61 86.5336 216.798 87.7803 219.399 87.7803C222 87.7803 224.188 86.528 225.963 84.0234C227.735 81.5189 228.623 76.5079 228.623 68.9942C228.623 61.439 227.735 56.4186 225.963 53.9348C224.188 51.451 221.981 50.2081 219.336 50.2081C216.733 50.2081 214.657 51.3039 213.104 53.4954C211.153 56.2941 210.177 61.4598 210.177 68.9942ZM204.354 68.9942C204.354 63.5683 204.916 59.2004 206.038 55.8905C207.16 52.5826 208.829 50.0308 211.043 48.2354C213.256 46.44 216.041 45.5423 219.399 45.5423C221.875 45.5423 224.046 46.0402 225.915 47.0303C227.783 48.0223 229.324 49.4519 230.541 51.319C231.759 53.1879 232.714 55.4643 233.406 58.1461C234.098 60.828 234.445 64.4434 234.445 68.9942C234.445 74.3786 233.888 78.7276 232.777 82.0356C231.664 85.3436 230.001 87.901 227.788 89.7058C225.574 91.5107 222.777 92.4141 219.399 92.4141C214.951 92.4141 211.457 90.828 208.918 87.6558C205.875 83.8348 204.354 77.6149 204.354 68.9942Z" fill="white"/>
<path d="M264.2 91.6289H258.535V55.7164C257.17 57.0121 255.382 58.3059 253.168 59.5996C250.953 60.8934 248.966 61.8647 247.203 62.5115V57.063C250.371 55.5806 253.141 53.7871 255.513 51.6767C257.883 49.5701 259.563 47.5238 260.549 45.5398H264.2V91.6289Z" fill="white"/>
<path d="M61.965 237.98H56.2999V202.068C54.9348 203.364 53.1469 204.657 50.9324 205.951C48.718 207.245 46.731 208.216 44.9678 208.863V203.415C48.1359 201.932 50.9059 200.139 53.2777 198.028C55.6477 195.922 57.3275 193.875 58.3134 191.893H61.965V237.98Z" fill="white"/>
<path d="M86.8488 215.342C86.8488 222.878 87.7342 227.893 89.5088 230.386C91.2816 232.881 93.4695 234.128 96.0707 234.128C98.672 234.128 100.86 232.876 102.635 230.371C104.407 227.867 105.295 222.856 105.295 215.342C105.295 207.787 104.407 202.766 102.635 200.282C100.86 197.799 98.653 196.556 96.0082 196.556C93.405 196.556 91.329 197.652 89.7762 199.843C87.8252 202.642 86.8488 207.807 86.8488 215.342ZM81.0264 215.342C81.0264 209.916 81.5876 205.548 82.71 202.238C83.8324 198.93 85.5008 196.379 87.7153 194.583C89.9278 192.79 92.713 191.89 96.0707 191.89C98.5468 191.89 100.718 192.388 102.587 193.378C104.455 194.37 105.996 195.8 107.213 197.667C108.43 199.536 109.386 201.812 110.078 204.494C110.77 207.176 111.117 210.791 111.117 215.342C111.117 220.726 110.56 225.075 109.449 228.383C108.336 231.691 106.673 234.249 104.46 236.053C102.246 237.858 99.4493 238.762 96.0707 238.762C91.6228 238.762 88.1286 237.176 85.5899 234.003C82.5469 230.182 81.0264 223.963 81.0264 215.342Z" fill="white"/>
<path d="M140.871 237.98H135.206V202.068C133.841 203.364 132.053 204.657 129.839 205.951C127.624 207.245 125.637 208.216 123.874 208.863V203.415C127.042 201.932 129.812 200.139 132.184 198.028C134.554 195.922 136.234 193.875 137.22 191.893H140.871V237.98Z" fill="white"/>
<path d="M935.553 441.26H1186.15V567.058H935.553L867.129 504.158C935.553 441.26 935.553 441.26 935.553 441.26Z" fill="#333333"/>
<path d="M1058.37 491.406C1057.92 490.01 1057.32 488.76 1056.57 487.654C1055.84 486.535 1054.96 485.581 1053.94 484.794C1052.93 484.006 1051.78 483.405 1050.5 482.991C1049.21 482.576 1047.8 482.369 1046.27 482.369C1043.75 482.369 1041.47 483.018 1039.41 484.317C1037.35 485.616 1035.71 487.53 1034.49 490.059C1033.28 492.587 1032.67 495.689 1032.67 499.365C1032.67 503.041 1033.29 506.143 1034.52 508.672C1035.75 511.2 1037.41 513.114 1039.51 514.413C1041.61 515.712 1043.97 516.361 1046.6 516.361C1049.03 516.361 1051.17 515.843 1053.02 514.807C1054.89 513.757 1056.34 512.278 1057.38 510.371C1058.43 508.451 1058.95 506.191 1058.95 503.593L1060.53 503.925H1047.76V499.365H1063.93V503.925C1063.93 507.421 1063.18 510.461 1061.69 513.045C1060.21 515.629 1058.17 517.633 1055.55 519.056C1052.96 520.465 1049.97 521.17 1046.6 521.17C1042.84 521.17 1039.54 520.286 1036.69 518.517C1033.86 516.748 1031.65 514.233 1030.06 510.972C1028.48 507.711 1027.7 503.842 1027.7 499.365C1027.7 496.007 1028.15 492.988 1029.04 490.307C1029.96 487.613 1031.24 485.319 1032.9 483.426C1034.56 481.533 1036.52 480.082 1038.79 479.073C1041.05 478.064 1043.55 477.56 1046.27 477.56C1048.51 477.56 1050.59 477.899 1052.53 478.576C1054.48 479.239 1056.21 480.185 1057.73 481.415C1059.26 482.631 1060.54 484.089 1061.56 485.789C1062.59 487.475 1063.29 489.347 1063.68 491.406H1058.37Z" fill="white"/>
</g>
<path d="M178.756 215.294V209.652H195.994V215.294H178.756Z" fill="white"/>
<mask id="mask1_411_2205" style="mask-type:luminance" maskUnits="userSpaceOnUse" x="0" y="0" width="1230" height="1013">
<path d="M0.603516 0.452759H1229.42V1012.98H0.603516V0.452759Z" fill="white"/>
</mask>
<g mask="url(#mask1_411_2205)">
<path d="M246.214 236.02H240.382V199.051C238.977 200.382 237.136 201.716 234.857 203.047C232.578 204.381 230.532 205.378 228.716 206.044V200.437C231.979 198.911 234.83 197.063 237.27 194.892C239.71 192.724 241.44 190.617 242.456 188.576H246.214V236.02Z" fill="white"/>
<path d="M293.131 230.443V236.02H261.734C261.69 234.622 261.918 233.279 262.414 231.989C263.213 229.862 264.492 227.768 266.254 225.705C268.013 223.642 270.558 221.256 273.885 218.55C279.046 214.339 282.536 211.002 284.351 208.541C286.165 206.082 287.071 203.756 287.071 201.563C287.071 199.266 286.247 197.325 284.593 195.747C282.94 194.166 280.786 193.378 278.128 193.378C275.32 193.378 273.073 194.215 271.39 195.892C269.704 197.567 268.851 199.888 268.83 202.853L262.835 202.24C263.245 197.793 264.79 194.404 267.469 192.073C270.146 189.74 273.743 188.574 278.259 188.574C282.817 188.574 286.423 189.832 289.081 192.346C291.737 194.86 293.066 197.976 293.066 201.693C293.066 203.585 292.678 205.442 291.9 207.268C291.121 209.096 289.83 211.019 288.027 213.037C286.224 215.059 283.226 217.831 279.036 221.354C275.536 224.276 273.29 226.258 272.296 227.299C271.303 228.344 270.482 229.39 269.833 230.443H293.131Z" fill="white"/>
<path d="M306.705 212.716C306.705 220.473 307.617 225.637 309.443 228.202C311.269 230.77 313.519 232.055 316.198 232.055C318.877 232.055 321.127 230.765 322.953 228.187C324.779 225.608 325.693 220.452 325.693 212.716C325.693 204.938 324.779 199.771 322.953 197.213C321.127 194.656 318.856 193.377 316.134 193.377C313.455 193.377 311.316 194.505 309.718 196.763C307.71 199.641 306.705 204.959 306.705 212.716ZM300.71 212.716C300.71 207.13 301.288 202.634 302.445 199.228C303.599 195.822 305.317 193.194 307.596 191.346C309.875 189.5 312.742 188.576 316.198 188.576C318.748 188.576 320.983 189.087 322.906 190.105C324.828 191.127 326.415 192.598 327.668 194.522C328.922 196.446 329.904 198.788 330.617 201.549C331.33 204.308 331.686 208.033 331.686 212.716C331.686 218.259 331.113 222.734 329.97 226.14C328.825 229.546 327.113 232.179 324.834 234.037C322.553 235.896 319.675 236.824 316.198 236.824C311.619 236.824 308.023 235.191 305.408 231.926C302.276 227.994 300.71 221.591 300.71 212.716Z" fill="white"/>
<path d="M62.5837 385.596H56.7517V348.627C55.3468 349.959 53.5058 351.292 51.2269 352.623C48.948 353.957 46.9023 354.954 45.0859 355.62V350.013C48.3489 348.488 51.2004 346.639 53.6405 344.469C56.0805 342.3 57.8097 340.193 58.8259 338.152H62.5837V385.596Z" fill="white"/>
<path d="M109.5 380.021V385.598H78.1029C78.0593 384.2 78.2868 382.857 78.7836 381.567C79.5818 379.44 80.8615 377.347 82.6229 375.283C84.3823 373.22 86.9267 370.834 90.2541 368.128C95.4148 363.917 98.9053 360.58 100.72 358.119C102.534 355.66 103.44 353.335 103.44 351.141C103.44 348.844 102.616 346.903 100.962 345.325C99.3091 343.744 97.1553 342.956 94.4972 342.956C91.6893 342.956 89.4426 343.793 87.759 345.47C86.0735 347.145 85.2203 349.466 85.1995 352.431L79.2045 351.818C79.614 347.371 81.1592 343.982 83.8382 341.651C86.5152 339.318 90.1119 338.153 94.628 338.153C99.1859 338.153 102.792 339.41 105.45 341.924C108.106 344.438 109.435 347.554 109.435 351.271C109.435 353.163 109.047 355.021 108.269 356.846C107.49 358.674 106.199 360.597 104.396 362.615C102.593 364.637 99.5954 367.409 95.4053 370.932C91.9054 373.854 89.6587 375.836 88.6652 376.877C87.6718 377.922 86.8508 378.969 86.2024 380.021H109.5Z" fill="white"/>
<path d="M139.049 385.596H133.218V348.627C131.813 349.959 129.972 351.292 127.693 352.623C125.414 353.957 123.368 354.954 121.552 355.62V350.013C124.815 348.488 127.666 346.639 130.106 344.469C132.546 342.3 134.275 340.193 135.292 338.152H139.049V385.596Z" fill="white"/>
<path d="M175.756 365.58H193.674V371.414H175.756V365.58Z" fill="white"/>
<path d="M244.215 385.596H238.383V348.627C236.978 349.959 235.137 351.292 232.858 352.623C230.579 353.957 228.533 354.954 226.717 355.62V350.013C229.98 348.488 232.831 346.639 235.271 344.469C237.711 342.3 239.441 340.193 240.457 338.152H244.215V385.596Z" fill="white"/>
<path d="M280.502 368.967V347.663L265.63 368.967H280.502ZM280.502 385.598V374.286H259.895V368.967L281.571 338.349H286.334V368.967H292.749V374.286H286.334V385.598H280.502Z" fill="white"/>
<path d="M307.36 362.294C307.36 370.051 308.272 375.215 310.098 377.78C311.924 380.348 314.174 381.633 316.853 381.633C319.532 381.633 321.783 380.343 323.609 377.765C325.434 375.187 326.348 370.03 326.348 362.294C326.348 354.516 325.434 349.349 323.609 346.791C321.783 344.234 319.511 342.955 316.789 342.955C314.11 342.955 311.971 344.083 310.373 346.341C308.365 349.219 307.36 354.537 307.36 362.294ZM301.365 362.294C301.365 356.708 301.943 352.212 303.1 348.806C304.255 345.4 305.972 342.773 308.251 340.924C310.53 339.078 313.397 338.154 316.853 338.154C319.403 338.154 321.639 338.665 323.561 339.683C325.484 340.706 327.071 342.177 328.324 344.1C329.577 346.024 330.559 348.366 331.272 351.127C331.985 353.886 332.341 357.611 332.341 362.294C332.341 367.837 331.769 372.312 330.625 375.718C329.48 379.124 327.768 381.757 325.489 383.615C323.208 385.474 320.33 386.402 316.853 386.402C312.275 386.402 308.678 384.769 306.063 381.505C302.931 377.572 301.365 371.169 301.365 362.294Z" fill="white"/>
<path d="M60.071 527.369H54.239V490.401C52.8341 491.732 50.9932 493.065 48.7142 494.397C46.4353 495.73 44.3896 496.728 42.5732 497.394V491.787C45.8362 490.261 48.6877 488.413 51.1278 486.242C53.5679 484.073 55.297 481.967 56.3132 479.926H60.071V527.369Z" fill="white"/>
<path d="M96.358 510.739V489.435L81.4862 510.739H96.358ZM96.358 527.369V516.057H75.751V510.739L97.4274 480.12H102.19V510.739H108.606V516.057H102.19V527.369H96.358Z" fill="white"/>
<path d="M139.191 527.369H133.359V490.401C131.954 491.732 130.113 493.065 127.834 494.397C125.555 495.73 123.51 496.728 121.693 497.394V491.787C124.956 490.261 127.808 488.413 130.248 486.242C132.688 484.073 134.417 481.967 135.433 479.926H139.191V527.369Z" fill="white"/>
<path d="M177.225 507.351H195.143V513.186H177.225V507.351Z" fill="white"/>
<path d="M245.683 527.369H239.851V490.401C238.446 491.732 236.605 493.065 234.327 494.397C232.048 495.73 230.002 496.728 228.186 497.394V491.787C231.448 490.261 234.3 488.413 236.74 486.242C239.18 484.073 240.909 481.967 241.925 479.926H245.683V527.369Z" fill="white"/>
<path d="M269.723 512.058C269.723 514.057 270.149 515.97 271.002 517.795C271.855 519.623 273.048 521.015 274.582 521.969C276.116 522.925 277.725 523.404 279.411 523.404C281.874 523.404 283.99 522.416 285.76 520.438C287.533 518.463 288.418 515.776 288.418 512.381C288.418 509.114 287.543 506.542 285.794 504.662C284.045 502.781 281.841 501.842 279.183 501.842C276.548 501.842 274.313 502.781 272.477 504.662C270.64 506.542 269.723 509.007 269.723 512.058ZM293.538 491.688L287.738 492.139C287.22 489.862 286.485 488.208 285.535 487.177C283.957 485.523 282.012 484.695 279.703 484.695C277.845 484.695 276.212 485.21 274.809 486.241C272.972 487.575 271.526 489.519 270.468 492.075C269.408 494.632 268.858 498.274 268.814 503.002C270.219 500.875 271.935 499.294 273.968 498.264C275.998 497.233 278.125 496.716 280.349 496.716C284.238 496.716 287.548 498.14 290.282 500.986C293.014 503.835 294.379 507.513 294.379 512.026C294.379 514.991 293.737 517.746 292.451 520.294C291.168 522.838 289.401 524.789 287.154 526.143C284.907 527.497 282.359 528.174 279.508 528.174C274.648 528.174 270.684 526.397 267.616 522.838C264.548 519.283 263.015 513.424 263.015 505.258C263.015 496.126 264.71 489.487 268.103 485.34C271.061 481.728 275.046 479.923 280.059 479.923C283.794 479.923 286.858 480.966 289.245 483.05C291.63 485.136 293.062 488.014 293.538 491.688Z" fill="white"/>
<path d="M302.835 514.993L308.959 514.478C309.412 517.443 310.466 519.672 312.118 521.164C313.771 522.659 315.763 523.404 318.095 523.404C320.903 523.404 323.281 522.352 325.224 520.247C327.168 518.141 328.14 515.347 328.14 511.866C328.14 508.558 327.205 505.948 325.338 504.034C323.469 502.123 321.023 501.165 317.999 501.165C316.12 501.165 314.423 501.591 312.912 502.44C311.399 503.289 310.212 504.388 309.348 505.742L303.872 505.033L308.474 480.765H332.093V486.307H313.139L310.578 499.006C313.43 497.031 316.421 496.041 319.553 496.041C323.702 496.041 327.202 497.47 330.051 500.328C332.903 503.187 334.329 506.861 334.329 511.351C334.329 515.627 333.075 519.323 330.571 522.439C327.524 526.263 323.366 528.176 318.095 528.176C313.776 528.176 310.25 526.973 307.516 524.566C304.784 522.16 303.224 518.969 302.835 514.993Z" fill="white"/>
<path d="M59.3249 673.143H53.4929V636.174C52.088 637.505 50.2471 638.839 47.9681 640.17C45.6892 641.504 43.6435 642.501 41.8271 643.167V637.56C45.0901 636.034 47.9416 634.186 50.3817 632.015C52.8218 629.847 54.5509 627.74 55.5671 625.699H59.3249V673.143Z" fill="white"/>
<path d="M83.3651 657.832C83.3651 659.831 83.7917 661.743 84.6449 663.569C85.498 665.396 86.6906 666.788 88.2244 667.742C89.7582 668.699 91.3679 669.178 93.0534 669.178C95.5162 669.178 97.6321 668.189 99.4029 666.211C101.176 664.236 102.061 661.549 102.061 658.154C102.061 654.888 101.185 652.315 99.4371 650.435C97.6871 648.555 95.484 647.615 92.8259 647.615C90.1905 647.615 87.9552 648.555 86.1199 650.435C84.2827 652.315 83.3651 654.78 83.3651 657.832ZM107.18 637.461L101.38 637.912C100.863 635.636 100.127 633.982 99.1773 632.95C97.5999 631.296 95.6546 630.468 93.3454 630.468C91.4873 630.468 89.8549 630.983 88.4519 632.015C86.6148 633.348 85.1681 635.293 84.1102 637.848C83.0504 640.405 82.5005 644.047 82.4569 648.775C83.8618 646.648 85.5777 645.068 87.6101 644.038C89.6407 643.006 91.7679 642.489 93.9919 642.489C97.8805 642.489 101.191 643.913 103.925 646.759C106.657 649.609 108.022 653.287 108.022 657.8C108.022 660.764 107.379 663.52 106.094 666.068C104.81 668.612 103.043 670.562 100.796 671.916C98.5498 673.27 96.0016 673.947 93.1501 673.947C88.2908 673.947 84.3263 672.171 81.2587 668.612C78.191 665.057 76.6572 659.197 76.6572 651.031C76.6572 641.899 78.3522 635.261 81.746 631.113C84.7036 627.502 88.6889 625.697 93.7018 625.697C97.4368 625.697 100.501 626.74 102.888 628.824C105.273 630.91 106.704 633.788 107.18 637.461Z" fill="white"/>
<path d="M122.923 657.832C122.923 659.831 123.349 661.743 124.202 663.569C125.056 665.396 126.248 666.788 127.782 667.742C129.316 668.699 130.926 669.178 132.611 669.178C135.074 669.178 137.19 668.189 138.961 666.211C140.733 664.236 141.619 661.549 141.619 658.154C141.619 654.888 140.743 652.315 138.995 650.435C137.245 648.555 135.042 647.615 132.383 647.615C129.748 647.615 127.513 648.555 125.678 650.435C123.84 652.315 122.923 654.78 122.923 657.832ZM146.738 637.461L140.938 637.912C140.42 635.636 139.685 633.982 138.735 632.95C137.157 631.296 135.212 630.468 132.903 630.468C131.045 630.468 129.413 630.983 128.01 632.015C126.172 633.348 124.726 635.293 123.668 637.848C122.608 640.405 122.058 644.047 122.015 648.775C123.419 646.648 125.135 645.068 127.168 644.038C129.198 643.006 131.326 642.489 133.55 642.489C137.438 642.489 140.748 643.913 143.482 646.759C146.214 649.609 147.58 653.287 147.58 657.8C147.58 660.764 146.937 663.52 145.651 666.068C144.368 668.612 142.601 670.562 140.354 671.916C138.107 673.27 135.559 673.947 132.708 673.947C127.848 673.947 123.884 672.171 120.816 668.612C117.749 665.057 116.215 659.197 116.215 651.031C116.215 641.899 117.91 635.261 121.304 631.113C124.261 627.502 128.247 625.697 133.259 625.697C136.994 625.697 140.058 626.74 142.445 628.824C144.83 630.91 146.262 633.788 146.738 637.461Z" fill="white"/>
<path d="M176.479 653.125H194.397V658.959H176.479V653.125Z" fill="white"/>
<path d="M244.937 673.143H239.105V636.174C237.7 637.505 235.859 638.839 233.58 640.17C231.302 641.504 229.256 642.501 227.439 643.167V637.56C230.702 636.034 233.554 634.186 235.994 632.015C238.434 629.847 240.163 627.74 241.179 625.699H244.937V673.143Z" fill="white"/>
<path d="M270.338 637.688C270.338 639.923 271.06 641.748 272.509 643.166C273.955 644.585 275.834 645.294 278.147 645.294C280.392 645.294 282.233 644.59 283.67 643.183C285.107 641.777 285.826 640.051 285.826 638.01C285.826 635.883 285.084 634.095 283.606 632.643C282.127 631.194 280.286 630.468 278.081 630.468C275.857 630.468 274.01 631.177 272.541 632.596C271.071 634.014 270.338 635.711 270.338 637.688ZM268.459 659.508C268.459 661.162 268.851 662.764 269.642 664.31C270.429 665.858 271.602 667.056 273.157 667.903C274.712 668.753 276.386 669.178 278.179 669.178C280.965 669.178 283.266 668.286 285.081 666.501C286.895 664.719 287.801 662.452 287.801 659.701C287.801 656.908 286.867 654.599 284.999 652.772C283.132 650.946 280.792 650.031 277.984 650.031C275.241 650.031 272.967 650.935 271.164 652.74C269.359 654.544 268.459 656.8 268.459 659.508ZM271.504 647.517C269.085 646.639 267.293 645.381 266.125 643.747C264.959 642.114 264.375 640.16 264.375 637.882C264.375 634.444 265.617 631.555 268.102 629.21C270.586 626.87 273.891 625.699 278.016 625.699C282.165 625.699 285.502 626.896 288.029 629.291C290.556 631.689 291.821 634.604 291.821 638.042C291.821 640.234 291.241 642.141 290.086 643.764C288.931 645.386 287.176 646.639 284.821 647.517C287.737 648.464 289.957 649.99 291.479 652.095C293.002 654.201 293.764 656.715 293.764 659.637C293.764 663.676 292.327 667.073 289.455 669.823C286.58 672.572 282.802 673.947 278.115 673.947C273.426 673.947 269.646 672.567 266.773 669.806C263.899 667.045 262.464 663.601 262.464 659.476C262.464 656.404 263.247 653.832 264.813 651.757C266.379 649.682 268.609 648.27 271.504 647.517Z" fill="white"/>
<path d="M302.089 660.764L308.213 660.25C308.666 663.214 309.72 665.443 311.371 666.935C313.025 668.431 315.017 669.176 317.349 669.176C320.157 669.176 322.535 668.123 324.478 666.019C326.421 663.912 327.394 661.119 327.394 657.637C327.394 654.329 326.459 651.719 324.592 649.805C322.722 647.895 320.277 646.937 317.253 646.937C315.374 646.937 313.677 647.363 312.166 648.211C310.653 649.06 309.466 650.16 308.601 651.514L303.126 650.805L307.727 626.536H331.347V632.079H312.393L309.832 644.777C312.683 642.802 315.675 641.812 318.807 641.812C322.956 641.812 326.456 643.242 329.305 646.099C332.157 648.958 333.582 652.632 333.582 657.123C333.582 661.398 332.329 665.095 329.825 668.21C326.778 672.035 322.62 673.947 317.349 673.947C313.03 673.947 309.504 672.744 306.77 670.338C304.038 667.931 302.478 664.74 302.089 660.764Z" fill="white"/>
<path d="M59.861 822.344H54.0291V785.375C52.6242 786.707 50.7832 788.04 48.5043 789.373C46.2253 790.705 44.1796 791.704 42.3633 792.368V786.761C45.6262 785.236 48.4777 783.389 50.9178 781.217C53.3579 779.048 55.087 776.943 56.1032 774.901H59.861V822.344Z" fill="white"/>
<path d="M85.2616 786.893C85.2616 789.13 85.9839 790.953 87.4324 792.372C88.879 793.79 90.7579 794.499 93.071 794.499C95.3158 794.499 97.1568 793.796 98.5939 792.389C100.031 790.982 100.75 789.258 100.75 787.215C100.75 785.088 100.008 783.3 98.5294 781.848C97.0506 780.4 95.2096 779.673 93.0046 779.673C90.7807 779.673 88.934 780.383 87.4647 781.801C85.9953 783.219 85.2616 784.916 85.2616 786.893ZM83.3827 808.713C83.3827 810.367 83.7751 811.969 84.5658 813.515C85.3526 815.064 86.5262 816.261 88.0808 817.108C89.6355 817.958 91.3096 818.383 93.1032 818.383C95.8884 818.383 98.19 817.493 100.004 815.707C101.819 813.924 102.725 811.657 102.725 808.906C102.725 806.113 101.79 803.804 99.9229 801.977C98.0554 800.151 95.7158 799.237 92.9079 799.237C90.1645 799.237 87.8913 800.138 86.0882 801.943C84.2833 803.75 83.3827 806.007 83.3827 808.713ZM86.4276 796.724C84.0083 795.842 82.2167 794.586 81.0488 792.953C79.8828 791.321 79.2988 789.365 79.2988 787.087C79.2988 783.649 80.5407 780.758 83.0262 778.417C85.5099 776.075 88.8146 774.904 92.9402 774.904C97.0885 774.904 100.425 776.101 102.953 778.497C105.48 780.892 106.745 783.809 106.745 787.246C106.745 789.439 106.164 791.346 105.01 792.969C103.855 794.591 102.099 795.842 99.7447 796.724C102.661 797.669 104.881 799.193 106.403 801.3C107.926 803.406 108.688 805.92 108.688 808.844C108.688 812.881 107.251 816.276 104.378 819.028C101.504 821.778 97.7255 823.154 93.0388 823.154C88.3501 823.154 84.5695 821.772 81.6972 819.011C78.8229 816.25 77.3877 812.806 77.3877 808.681C77.3877 805.609 78.1707 803.037 79.7368 800.962C81.3028 798.888 83.5325 797.475 86.4276 796.724Z" fill="white"/>
<path d="M123.461 807.035C123.461 809.032 123.887 810.944 124.741 812.77C125.594 814.598 126.786 815.989 128.32 816.946C129.854 817.902 131.464 818.381 133.149 818.381C135.612 818.381 137.728 817.391 139.499 815.414C141.271 813.438 142.157 810.752 142.157 807.355C142.157 804.089 141.281 801.517 139.533 799.636C137.783 797.758 135.58 796.817 132.922 796.817C130.286 796.817 128.051 797.758 126.216 799.636C124.378 801.517 123.461 803.983 123.461 807.035ZM147.276 786.665L141.476 787.113C140.959 784.837 140.223 783.185 139.273 782.153C137.696 780.497 135.75 779.67 133.441 779.67C131.583 779.67 129.951 780.186 128.548 781.218C126.71 782.551 125.264 784.494 124.206 787.051C123.146 789.609 122.596 793.25 122.553 797.977C123.958 795.849 125.673 794.271 127.706 793.241C129.736 792.209 131.864 791.693 134.088 791.693C137.976 791.693 141.287 793.116 144.02 795.962C146.753 798.81 148.118 802.49 148.118 807.001C148.118 809.968 147.475 812.723 146.189 815.269C144.906 817.815 143.139 819.765 140.892 821.119C138.645 822.473 136.097 823.15 133.246 823.15C128.386 823.15 124.422 821.372 121.354 817.815C118.287 814.26 116.753 808.4 116.753 800.234C116.753 791.102 118.448 784.462 121.842 780.315C124.799 776.705 128.785 774.9 133.798 774.9C137.533 774.9 140.596 775.943 142.983 778.027C145.368 780.111 146.8 782.989 147.276 786.665Z" fill="white"/>
<path d="M177.017 802.33H194.935V808.166H177.017V802.33Z" fill="white"/>
<path d="M254.158 816.767V822.344H222.761C222.718 820.948 222.945 819.603 223.442 818.313C224.24 816.188 225.52 814.093 227.281 812.029C229.041 809.968 231.585 807.582 234.912 804.874C240.073 800.665 243.563 797.326 245.378 794.867C247.192 792.408 248.099 790.081 248.099 787.887C248.099 785.59 247.274 783.649 245.621 782.073C243.967 780.492 241.814 779.704 239.155 779.704C236.347 779.704 234.101 780.54 232.417 782.216C230.732 783.891 229.879 786.213 229.858 789.177L223.863 788.566C224.272 784.117 225.817 780.73 228.496 778.397C231.173 776.066 234.77 774.901 239.286 774.901C243.844 774.901 247.45 776.157 250.108 778.672C252.765 781.185 254.094 784.3 254.094 788.017C254.094 789.909 253.705 791.769 252.928 793.594C252.148 795.422 250.857 797.343 249.054 799.361C247.251 801.383 244.254 804.156 240.064 807.68C236.564 810.6 234.317 812.584 233.323 813.625C232.33 814.668 231.509 815.715 230.861 816.767H254.158Z" fill="white"/>
<path d="M293.718 816.767V822.344H262.321C262.277 820.948 262.505 819.603 263.001 818.313C263.8 816.188 265.079 814.093 266.841 812.029C268.6 809.968 271.144 807.582 274.472 804.874C279.633 800.665 283.123 797.326 284.937 794.867C286.752 792.408 287.658 790.081 287.658 787.887C287.658 785.59 286.833 783.649 285.18 782.073C283.527 780.492 281.373 779.704 278.715 779.704C275.907 779.704 273.66 780.54 271.977 782.216C270.291 783.891 269.438 786.213 269.417 789.177L263.422 788.566C263.832 784.117 265.377 780.73 268.056 778.397C270.733 776.066 274.33 774.901 278.846 774.901C283.404 774.901 287.01 776.157 289.668 778.672C292.324 781.185 293.653 784.3 293.653 788.017C293.653 789.909 293.264 791.769 292.487 793.594C291.708 795.422 290.417 797.343 288.614 799.361C286.811 801.383 283.813 804.156 279.623 807.68C276.123 810.6 273.876 812.584 272.883 813.625C271.89 814.668 271.069 815.715 270.42 816.767H293.718Z" fill="white"/>
<path d="M302.625 809.968L308.749 809.453C309.202 812.417 310.256 814.647 311.908 816.138C313.561 817.632 315.553 818.381 317.885 818.381C320.693 818.381 323.071 817.327 325.014 815.22C326.958 813.115 327.93 810.32 327.93 806.841C327.93 803.533 326.996 800.922 325.128 799.008C323.259 797.098 320.813 796.14 317.789 796.14C315.91 796.14 314.213 796.566 312.702 797.415C311.189 798.263 310.002 799.363 309.138 800.719L303.662 800.008L308.264 775.739H331.883V781.282H312.929L310.368 793.98C313.22 792.006 316.211 791.015 319.343 791.015C323.492 791.015 326.992 792.445 329.841 795.304C332.693 798.16 334.119 801.835 334.119 806.324C334.119 810.601 332.865 814.298 330.361 817.411C327.314 821.238 323.156 823.15 317.885 823.15C313.567 823.15 310.04 821.947 307.306 819.541C304.574 817.134 303.014 813.943 302.625 809.968Z" fill="white"/>
<path d="M75.4266 958.538V964.115H44.0297C43.9861 962.72 44.2136 961.375 44.7103 960.085C45.5085 957.959 46.7883 955.864 48.5496 953.801C50.3091 951.74 52.8534 949.354 56.1808 946.646C61.3416 942.436 64.832 939.098 66.6465 936.639C68.4609 934.179 69.3671 931.852 69.3671 929.659C69.3671 927.362 68.5424 925.421 66.8891 923.844C65.2359 922.264 63.0821 921.476 60.4239 921.476C57.616 921.476 55.3693 922.311 53.6857 923.988C52.0002 925.662 51.1471 927.984 51.1262 930.949L45.1312 930.338C45.5407 925.889 47.0859 922.501 49.7649 920.169C52.442 917.838 56.0386 916.672 60.5548 916.672C65.1126 916.672 68.7187 917.928 71.3768 920.444C74.0331 922.956 75.3621 926.072 75.3621 929.789C75.3621 931.68 74.9735 933.54 74.1961 935.366C73.4169 937.193 72.1257 939.115 70.3227 941.133C68.5196 943.155 65.5222 945.927 61.3321 949.452C57.8322 952.371 55.5855 954.355 54.592 955.396C53.5985 956.439 52.7776 957.486 52.1292 958.538H75.4266Z" fill="white"/>
<path d="M112.332 958.538V964.115H80.9349C80.8913 962.72 81.1189 961.375 81.6156 960.085C82.4138 957.959 83.6936 955.864 85.4549 953.801C87.2143 951.74 89.7587 949.354 93.0861 946.646C98.2469 942.436 101.737 939.098 103.552 936.639C105.366 934.179 106.272 931.852 106.272 929.659C106.272 927.362 105.448 925.421 103.794 923.844C102.141 922.264 99.9873 921.476 97.3292 921.476C94.5213 921.476 92.2746 922.311 90.591 923.988C88.9055 925.662 88.0523 927.984 88.0315 930.949L82.0365 930.338C82.446 925.889 83.9912 922.501 86.6702 920.169C89.3473 917.838 92.9439 916.672 97.46 916.672C102.018 916.672 105.624 917.928 108.282 920.444C110.938 922.956 112.267 926.072 112.267 929.789C112.267 931.68 111.879 933.54 111.101 935.366C110.322 937.193 109.031 939.115 107.228 941.133C105.425 943.155 102.427 945.927 98.2374 949.452C94.7375 952.371 92.4908 954.355 91.4973 955.396C90.5038 956.439 89.6829 957.486 89.0344 958.538H112.332Z" fill="white"/>
<path d="M118.585 951.739L124.709 951.224C125.162 954.189 126.216 956.418 127.868 957.91C129.521 959.404 131.513 960.152 133.845 960.152C136.653 960.152 139.031 959.098 140.974 956.991C142.918 954.887 143.89 952.092 143.89 948.612C143.89 945.304 142.955 942.694 141.088 940.78C139.219 938.869 136.773 937.911 133.749 937.911C131.87 937.911 130.173 938.337 128.662 939.186C127.149 940.035 125.962 941.134 125.098 942.49L119.622 941.779L124.224 917.511H147.843V923.054H128.889L126.328 935.752C129.18 933.777 132.171 932.787 135.303 932.787C139.452 932.787 142.952 934.217 145.801 937.076C148.653 939.931 150.079 943.607 150.079 948.095C150.079 952.373 148.825 956.069 146.321 959.183C143.274 963.01 139.116 964.922 133.845 964.922C129.526 964.922 126 963.719 123.266 961.312C120.534 958.906 118.974 955.715 118.585 951.739Z" fill="white"/>
<path d="M169.358 956.475V943.52H156.43V938.105H169.358V925.243H174.866V938.105H187.794V943.52H174.866V956.475H169.358Z" fill="white"/>
</g>
</svg>
