<svg width="46" height="47" viewBox="0 0 46 47" fill="none" xmlns="http://www.w3.org/2000/svg">
<path d="M22.8904 4.4502C12.4575 4.4502 3.99023 12.9175 3.99023 23.3503C3.99023 33.7832 12.4575 42.2505 22.8904 42.2505C33.3233 42.2505 41.7905 33.7832 41.7905 23.3503C41.7905 12.9175 33.3233 4.4502 22.8904 4.4502ZM22.8904 32.8004C21.8509 32.8004 21.0004 31.9499 21.0004 30.9104V23.3503C21.0004 22.3108 21.8509 21.4603 22.8904 21.4603C23.9299 21.4603 24.7804 22.3108 24.7804 23.3503V30.9104C24.7804 31.9499 23.9299 32.8004 22.8904 32.8004ZM24.7804 17.6803H21.0004V13.9003H24.7804V17.6803Z" fill="white"/>
</svg>
