<svg width="386" height="23" viewBox="0 0 386 23" fill="none" xmlns="http://www.w3.org/2000/svg">
<path d="M19.3007 0.495998H22.3727L12.9417 22H9.90037L0.43861 0.495998H3.75637L11.4978 18.16L19.3007 0.495998ZM34.5825 22.2458C27.9777 22.2458 23.1239 17.5456 23.1239 11.248C23.1239 4.9504 27.9777 0.250239 34.5825 0.250239C41.1258 0.250239 45.9796 4.91968 45.9796 11.248C45.9796 17.5763 41.1258 22.2458 34.5825 22.2458ZM34.5825 19.5117C39.3441 19.5117 42.9076 16.0096 42.9076 11.248C42.9076 6.4864 39.3441 2.98432 34.5825 2.98432C29.7594 2.98432 26.1959 6.4864 26.1959 11.248C26.1959 16.0096 29.7594 19.5117 34.5825 19.5117ZM50.6749 22V0.495998H53.7469V19.3274H65.3898V22H50.6749ZM84.1521 22L75.9191 12.4461L71.9869 16.4397V22H68.9149V0.495998H71.9869V12.5075L83.6605 0.495998H87.1626L77.9773 10.1728L87.7463 22H84.1521ZM96.8118 22.2458C93.5248 22.2458 90.2992 21.1398 88.5789 19.5424L89.7155 17.1462C91.3129 18.5901 94.047 19.6346 96.8118 19.6346C100.529 19.6346 102.126 18.1907 102.126 16.3168C102.126 11.0637 89.1011 14.3814 89.1011 6.39424C89.1011 3.07648 91.6816 0.250239 97.3341 0.250239C99.8531 0.250239 102.464 0.926078 104.246 2.15488L103.232 4.61248C101.358 3.4144 99.2387 2.86144 97.3341 2.86144C93.6784 2.86144 92.1117 4.39744 92.1117 6.27136C92.1117 11.5245 105.137 8.23744 105.137 16.1325C105.137 19.4195 102.495 22.2458 96.8118 22.2458ZM137.089 0.495998H140.007L132.819 22H129.593L123.725 4.82752L117.858 22H114.571L107.382 0.495998H110.547L116.353 17.9757L122.404 0.495998H125.231L131.16 18.0678L137.089 0.495998ZM159.141 22L156.776 16.624H145.348L142.983 22H139.819L149.557 0.495998H152.598L162.367 22H159.141ZM146.423 14.1664H155.701L151.062 3.62944L146.423 14.1664ZM180.174 18.1293V11.1251H183.123V19.5117C180.973 21.3242 177.993 22.2458 174.982 22.2458C168.378 22.2458 163.524 17.607 163.524 11.248C163.524 4.88896 168.378 0.250239 175.044 0.250239C178.454 0.250239 181.341 1.38688 183.308 3.568L181.403 5.47264C179.621 3.75232 177.594 2.98432 175.167 2.98432C170.19 2.98432 166.596 6.45568 166.596 11.248C166.596 15.9789 170.19 19.5117 175.136 19.5117C176.949 19.5117 178.638 19.1123 180.174 18.1293ZM192.077 19.3274H204.611V22H189.005V0.495998H204.181V3.16864H192.077V9.77344H202.86V12.3846H192.077V19.3274ZM225.006 0.495998H228.078V22H225.559L212.657 5.96416V22H209.585V0.495998H212.104L225.006 16.5318V0.495998ZM252.38 22.2458C245.868 22.2458 241.014 17.607 241.014 11.248C241.014 4.88896 245.868 0.250239 252.411 0.250239C255.729 0.250239 258.616 1.38688 260.583 3.59872L258.586 5.53408C256.927 3.78304 254.899 2.98432 252.534 2.98432C247.68 2.98432 244.086 6.4864 244.086 11.248C244.086 16.0096 247.68 19.5117 252.534 19.5117C254.899 19.5117 256.927 18.6822 258.586 16.9312L260.583 18.8666C258.616 21.0784 255.729 22.2458 252.38 22.2458ZM282.69 22H279.342L274.703 15.3952C274.273 15.4259 273.812 15.4566 273.352 15.4566H268.037V22H264.965V0.495998H273.352C278.943 0.495998 282.322 3.32224 282.322 7.99168C282.322 11.3094 280.601 13.7056 277.591 14.7808L282.69 22ZM273.259 12.8454C277.192 12.8454 279.25 11.0637 279.25 7.99168C279.25 4.91968 277.192 3.16864 273.259 3.16864H268.037V12.8454H273.259ZM303.351 22L300.986 16.624H289.558L287.193 22H284.029L293.767 0.495998H296.808L306.577 22H303.351ZM290.633 14.1664H299.911L295.272 3.62944L290.633 14.1664ZM324.961 3.16864H312.857V10.6643H323.64V13.3062H312.857V22H309.785V0.495998H324.961V3.16864ZM333.705 22V3.16864H326.332V0.495998H344.119V3.16864H336.746V22H333.705ZM350.537 19.3274H363.071V22H347.465V0.495998H362.641V3.16864H350.537V9.77344H361.32V12.3846H350.537V19.3274ZM385.77 22H382.422L377.783 15.3952C377.353 15.4259 376.892 15.4566 376.431 15.4566H371.117V22H368.045V0.495998H376.431C382.023 0.495998 385.402 3.32224 385.402 7.99168C385.402 11.3094 383.681 13.7056 380.671 14.7808L385.77 22ZM376.339 12.8454C380.271 12.8454 382.33 11.0637 382.33 7.99168C382.33 4.91968 380.271 3.16864 376.339 3.16864H371.117V12.8454H376.339Z" fill="black"/>
</svg>
