<svg width="127" height="41" viewBox="0 0 127 41" fill="none" xmlns="http://www.w3.org/2000/svg">
<rect x="0.58786" y="0.77536" width="125.349" height="39.5366" rx="4.71744" fill="black" stroke="black" stroke-width="0.44928"/>
<path d="M55.6233 10.6064V14.5364H55.352V10.6064H55.6233ZM56.6273 12.5769C56.6273 12.2153 56.7177 11.8814 56.8985 11.5751C57.0793 11.2651 57.3229 11.0197 57.6291 10.8389C57.9354 10.6544 58.2694 10.5622 58.631 10.5622C58.9926 10.5622 59.3284 10.6544 59.6384 10.8389C59.9484 11.0197 60.1937 11.2651 60.3746 11.5751C60.5554 11.8814 60.6458 12.2153 60.6458 12.5769C60.6458 12.9386 60.5554 13.2744 60.3746 13.5843C60.1937 13.8906 59.9484 14.1342 59.6384 14.315C59.3284 14.4921 58.9926 14.5807 58.631 14.5807C58.2657 14.5807 57.9299 14.4939 57.6236 14.3205C57.3173 14.1471 57.0738 13.9072 56.893 13.6009C56.7158 13.2947 56.6273 12.9533 56.6273 12.5769ZM56.904 12.5825C56.904 12.8961 56.9815 13.1858 57.1365 13.4515C57.2915 13.7172 57.5 13.9294 57.762 14.088C58.024 14.243 58.3118 14.3205 58.6255 14.3205C58.9428 14.3205 59.2343 14.243 59.5 14.088C59.7694 13.933 59.9816 13.7227 60.1365 13.457C60.2915 13.1877 60.369 12.8943 60.369 12.5769C60.369 12.2596 60.2897 11.9681 60.131 11.7024C59.976 11.433 59.7657 11.219 59.5 11.0603C59.2343 10.9016 58.9446 10.8223 58.631 10.8223C58.3136 10.8223 58.0221 10.9035 57.7564 11.0659C57.4908 11.2245 57.2823 11.4385 57.131 11.7079C56.9797 11.9773 56.904 12.2688 56.904 12.5825ZM63.6143 11.0492C63.4814 10.9865 63.3338 10.933 63.1715 10.8887C63.0091 10.8444 62.8504 10.8223 62.6955 10.8223C62.4372 10.8223 62.2305 10.8869 62.0755 11.016C61.9205 11.1415 61.8431 11.3039 61.8431 11.5031C61.8431 11.6433 61.8836 11.7633 61.9648 11.8629C62.0497 11.9589 62.1567 12.04 62.2859 12.1065C62.415 12.1692 62.5811 12.2393 62.784 12.3168C63.0054 12.398 63.1881 12.481 63.332 12.5659C63.4796 12.6507 63.6032 12.767 63.7029 12.9146C63.8025 13.0585 63.8523 13.2448 63.8523 13.4736C63.8523 13.6913 63.8006 13.8851 63.6973 14.0548C63.594 14.2209 63.4482 14.35 63.26 14.4423C63.0755 14.5345 62.8634 14.5807 62.6235 14.5807C62.2065 14.5807 61.7932 14.446 61.3836 14.1766L61.5109 13.9552C61.6475 14.0585 61.8154 14.1489 62.0146 14.2264C62.2139 14.3039 62.4076 14.3426 62.5958 14.3426C62.7619 14.3426 62.9187 14.3113 63.0663 14.2486C63.2176 14.1821 63.3394 14.0843 63.4316 13.9552C63.5276 13.8223 63.5755 13.6637 63.5755 13.4792C63.5755 13.3057 63.5313 13.16 63.4427 13.0419C63.3578 12.9238 63.249 12.8297 63.1161 12.7596C62.987 12.6858 62.8228 12.612 62.6235 12.5382C62.4021 12.457 62.2194 12.3795 62.0755 12.3057C61.9316 12.2282 61.8098 12.1268 61.7102 12.0013C61.6143 11.8758 61.5663 11.719 61.5663 11.5308C61.5663 11.3463 61.6124 11.1839 61.7047 11.0437C61.8006 10.8998 61.9316 10.7891 62.0977 10.7116C62.2674 10.6304 62.4556 10.588 62.6623 10.5843C62.8394 10.5843 63.022 10.6083 63.2102 10.6563C63.4021 10.7042 63.5719 10.7651 63.7195 10.8389L63.6143 11.0492ZM68.7437 13.2356H67.0112L66.4909 14.5364H66.2197L67.8802 10.4348H67.9023L69.5629 14.5364H69.2584L68.7437 13.2356ZM68.644 12.981L67.8857 11.0492L67.1108 12.981H68.644ZM71.3787 10.6064C71.7514 10.6064 72.0466 10.7024 72.2643 10.8943C72.4857 11.0825 72.5964 11.3574 72.5964 11.719C72.5964 11.9256 72.5521 12.1175 72.4636 12.2946C72.375 12.4718 72.2366 12.6157 72.0484 12.7264C71.8639 12.8334 71.6315 12.8869 71.351 12.8869H70.7422V14.5364H70.4709V10.6064H71.3787ZM71.351 12.6268C71.5872 12.6268 71.7791 12.5788 71.9267 12.4828C72.0743 12.3869 72.1776 12.2707 72.2366 12.1341C72.2994 11.9939 72.3307 11.8555 72.3307 11.719C72.3307 11.4644 72.2496 11.2596 72.0872 11.1046C71.9248 10.9459 71.6979 10.8666 71.4064 10.8666H70.7422V12.6268H71.351ZM74.4436 10.6064C74.8163 10.6064 75.1115 10.7024 75.3292 10.8943C75.5506 11.0825 75.6613 11.3574 75.6613 11.719C75.6613 11.9256 75.617 12.1175 75.5284 12.2946C75.4399 12.4718 75.3015 12.6157 75.1133 12.7264C74.9288 12.8334 74.6963 12.8869 74.4159 12.8869H73.807V14.5364H73.5358V10.6064H74.4436ZM74.4159 12.6268C74.652 12.6268 74.8439 12.5788 74.9915 12.4828C75.1391 12.3869 75.2425 12.2707 75.3015 12.1341C75.3642 11.9939 75.3956 11.8555 75.3956 11.719C75.3956 11.4644 75.3144 11.2596 75.1521 11.1046C74.9897 10.9459 74.7627 10.8666 74.4712 10.8666H73.807V12.6268H74.4159ZM78.0489 12.5769C78.0489 12.2153 78.1393 11.8814 78.3201 11.5751C78.5009 11.2651 78.7445 11.0197 79.0507 10.8389C79.357 10.6544 79.691 10.5622 80.0526 10.5622C80.4142 10.5622 80.75 10.6544 81.06 10.8389C81.3699 11.0197 81.6153 11.2651 81.7962 11.5751C81.977 11.8814 82.0674 12.2153 82.0674 12.5769C82.0674 12.9386 81.977 13.2744 81.7962 13.5843C81.6153 13.8906 81.3699 14.1342 81.06 14.315C80.75 14.4921 80.4142 14.5807 80.0526 14.5807C79.6873 14.5807 79.3515 14.4939 79.0452 14.3205C78.7389 14.1471 78.4954 13.9072 78.3146 13.6009C78.1374 13.2947 78.0489 12.9533 78.0489 12.5769ZM78.3256 12.5825C78.3256 12.8961 78.4031 13.1858 78.5581 13.4515C78.7131 13.7172 78.9216 13.9294 79.1836 14.088C79.4456 14.243 79.7334 14.3205 80.0471 14.3205C80.3644 14.3205 80.6559 14.243 80.9216 14.088C81.191 13.933 81.4032 13.7227 81.5581 13.457C81.7131 13.1877 81.7906 12.8943 81.7906 12.5769C81.7906 12.2596 81.7113 11.9681 81.5526 11.7024C81.3976 11.433 81.1873 11.219 80.9216 11.0603C80.6559 10.9016 80.3662 10.8223 80.0526 10.8223C79.7352 10.8223 79.4437 10.9035 79.178 11.0659C78.9124 11.2245 78.7039 11.4385 78.5526 11.7079C78.4013 11.9773 78.3256 12.2688 78.3256 12.5825ZM86.3699 10.6064V14.6305H86.3588L83.3311 11.2208L83.3366 14.5364H83.0709V10.5234H83.0875L86.1152 13.9607L86.1097 10.6064H86.3699Z" fill="white"/>
<path d="M35.2684 26.1306L38.6434 17.4128H40.0134L43.3635 26.1306H41.9313L39.9386 20.875C39.9137 20.8169 39.8639 20.6757 39.7892 20.4516C39.7228 20.2274 39.6439 19.9783 39.5526 19.7043C39.4612 19.4303 39.3782 19.1813 39.3035 18.9571C39.2288 18.7246 39.179 18.5752 39.154 18.5087L39.4405 18.4963C39.3907 18.6374 39.3284 18.8159 39.2537 19.0318C39.1873 19.2477 39.1125 19.476 39.0295 19.7168C38.9548 19.9576 38.8801 20.1859 38.8053 20.4018C38.7306 20.6093 38.6683 20.7837 38.6185 20.9248L36.6383 26.1306H35.2684ZM36.7629 23.9636L37.261 22.6684H41.2214L41.7943 23.9636H36.7629ZM44.574 28.8705V19.5922H45.8692V21.0867L45.6699 20.9746C45.7198 20.7256 45.8609 20.4889 46.0934 20.2648C46.3258 20.0323 46.6081 19.8455 46.9402 19.7043C47.2807 19.5549 47.6294 19.4802 47.9864 19.4802C48.5759 19.4802 49.0989 19.6255 49.5556 19.916C50.0122 20.2066 50.3734 20.6052 50.6391 21.1116C50.9048 21.6181 51.0376 22.1993 51.0376 22.8552C51.0376 23.5028 50.9048 24.084 50.6391 24.5988C50.3817 25.1052 50.0247 25.5079 49.5681 25.8068C49.1114 26.0974 48.5966 26.2427 48.0238 26.2427C47.6418 26.2427 47.2724 26.168 46.9153 26.0185C46.5583 25.8608 46.2553 25.6615 46.0062 25.4207C45.7571 25.18 45.6035 24.9309 45.5454 24.6735L45.8692 24.4991V28.8705H44.574ZM47.812 25.0596C48.194 25.0596 48.5344 24.9641 48.8333 24.7731C49.1322 24.5822 49.3688 24.3206 49.5431 23.9885C49.7175 23.6564 49.8047 23.2786 49.8047 22.8552C49.8047 22.4318 49.7175 22.0581 49.5431 21.7343C49.3771 21.4022 49.1446 21.1407 48.8457 20.9497C48.5468 20.7588 48.2023 20.6633 47.812 20.6633C47.4218 20.6633 47.0772 20.7588 46.7783 20.9497C46.4794 21.1324 46.2428 21.3898 46.0685 21.7219C45.8941 22.054 45.8069 22.4318 45.8069 22.8552C45.8069 23.2786 45.8941 23.6564 46.0685 23.9885C46.2428 24.3206 46.4794 24.5822 46.7783 24.7731C47.0772 24.9641 47.4218 25.0596 47.812 25.0596ZM52.4307 28.8705V19.5922H53.7259V21.0867L53.5267 20.9746C53.5765 20.7256 53.7176 20.4889 53.9501 20.2648C54.1826 20.0323 54.4649 19.8455 54.797 19.7043C55.1374 19.5549 55.4861 19.4802 55.8431 19.4802C56.4326 19.4802 56.9557 19.6255 57.4123 19.916C57.869 20.2066 58.2302 20.6052 58.4958 21.1116C58.7615 21.6181 58.8944 22.1993 58.8944 22.8552C58.8944 23.5028 58.7615 24.084 58.4958 24.5988C58.2385 25.1052 57.8814 25.5079 57.4248 25.8068C56.9682 26.0974 56.4534 26.2427 55.8805 26.2427C55.4986 26.2427 55.1291 26.168 54.7721 26.0185C54.4151 25.8608 54.112 25.6615 53.8629 25.4207C53.6139 25.18 53.4603 24.9309 53.4021 24.6735L53.7259 24.4991V28.8705H52.4307ZM55.6688 25.0596C56.0507 25.0596 56.3911 24.9641 56.69 24.7731C56.9889 24.5822 57.2255 24.3206 57.3999 23.9885C57.5742 23.6564 57.6614 23.2786 57.6614 22.8552C57.6614 22.4318 57.5742 22.0581 57.3999 21.7343C57.2338 21.4022 57.0014 21.1407 56.7025 20.9497C56.4036 20.7588 56.059 20.6633 55.6688 20.6633C55.2786 20.6633 54.934 20.7588 54.6351 20.9497C54.3362 21.1324 54.0996 21.3898 53.9252 21.7219C53.7509 22.054 53.6637 22.4318 53.6637 22.8552C53.6637 23.2786 53.7509 23.6564 53.9252 23.9885C54.0996 24.3206 54.3362 24.5822 54.6351 24.7731C54.934 24.9641 55.2786 25.0596 55.6688 25.0596ZM60.3124 26.1306V16.9146H61.5952V26.1306H60.3124ZM66.3428 26.2552C65.6702 26.2552 65.0725 26.114 64.5494 25.8317C64.0346 25.5411 63.6278 25.1467 63.3289 24.6486C63.0383 24.1504 62.893 23.5775 62.893 22.9299C62.893 22.4152 62.976 21.9461 63.1421 21.5226C63.3081 21.0992 63.5365 20.7339 63.8271 20.4267C64.1259 20.1112 64.4788 19.8704 64.8856 19.7043C65.3008 19.53 65.7491 19.4428 66.2307 19.4428C66.6541 19.4428 67.0485 19.5258 67.4138 19.6919C67.7791 19.8496 68.0946 20.0696 68.3603 20.3519C68.6343 20.6342 68.8419 20.9705 68.983 21.3607C69.1325 21.7426 69.203 22.1619 69.1947 22.6186L69.1823 23.1666H63.8395L63.5531 22.1453H68.0739L67.8871 22.357V22.0581C67.8622 21.7842 67.7708 21.5392 67.6131 21.3234C67.4553 21.1075 67.2561 20.9373 67.0153 20.8127C66.7745 20.6882 66.513 20.6259 66.2307 20.6259C65.7823 20.6259 65.4046 20.7131 65.0974 20.8875C64.7902 21.0535 64.5577 21.3026 64.3999 21.6347C64.2422 21.9585 64.1633 22.3612 64.1633 22.8427C64.1633 23.2994 64.2588 23.6979 64.4498 24.0383C64.6407 24.3704 64.9106 24.6278 65.2593 24.8105C65.608 24.9931 66.0107 25.0845 66.4673 25.0845C66.7911 25.0845 67.09 25.0305 67.364 24.9226C67.6463 24.8146 67.9493 24.6195 68.2731 24.3372L68.9208 25.2464C68.7215 25.4456 68.4766 25.62 68.186 25.7694C67.9037 25.9189 67.6006 26.0393 67.2768 26.1306C66.9613 26.2136 66.65 26.2552 66.3428 26.2552ZM76.2588 26.2552C75.7108 26.2552 75.2168 26.1597 74.7768 25.9687C74.3367 25.7778 73.9714 25.4955 73.6808 25.1218L74.5526 24.3746C74.8017 24.6652 75.0715 24.8769 75.3621 25.0098C75.661 25.1343 75.9973 25.1966 76.3709 25.1966C76.5203 25.1966 76.6573 25.18 76.7819 25.1467C76.9147 25.1052 77.0268 25.0471 77.1181 24.9724C77.2178 24.8977 77.2925 24.8105 77.3423 24.7109C77.3921 24.6029 77.417 24.4867 77.417 24.3621C77.417 24.1463 77.3382 23.9719 77.1804 23.8391C77.0974 23.781 76.9645 23.7187 76.7819 23.6523C76.6075 23.5775 76.3792 23.5028 76.0969 23.4281C75.6153 23.3035 75.221 23.1624 74.9138 23.0047C74.6066 22.8469 74.3699 22.6684 74.2039 22.4691C74.0793 22.3114 73.988 22.1412 73.9299 21.9585C73.8718 21.7676 73.8427 21.56 73.8427 21.3358C73.8427 21.0618 73.9008 20.8127 74.0171 20.5886C74.1416 20.3561 74.3077 20.1568 74.5152 19.9908C74.7311 19.8164 74.9802 19.6836 75.2625 19.5922C75.5531 19.5009 75.8603 19.4553 76.1841 19.4553C76.4913 19.4553 76.7943 19.4968 77.0932 19.5798C77.4004 19.6628 77.6827 19.7832 77.9401 19.941C78.1975 20.0987 78.4134 20.2855 78.5877 20.5014L77.8529 21.3109C77.6952 21.1532 77.5208 21.0162 77.3299 20.8999C77.1472 20.7754 76.9604 20.6799 76.7694 20.6135C76.5785 20.5471 76.4041 20.5138 76.2464 20.5138C76.072 20.5138 75.9142 20.5304 75.7731 20.5637C75.632 20.5969 75.5116 20.6467 75.4119 20.7131C75.3206 20.7795 75.25 20.8626 75.2002 20.9622C75.1504 21.0618 75.1255 21.1739 75.1255 21.2984C75.1338 21.4064 75.1587 21.5102 75.2002 21.6098C75.25 21.7011 75.3165 21.78 75.3995 21.8464C75.4908 21.9128 75.6278 21.9834 75.8105 22.0581C75.9931 22.1329 76.2256 22.2034 76.5079 22.2699C76.923 22.3778 77.2634 22.4982 77.5291 22.631C77.8031 22.7556 78.019 22.9009 78.1767 23.0669C78.3428 23.2247 78.459 23.4073 78.5254 23.6149C78.5919 23.8225 78.6251 24.0549 78.6251 24.3123C78.6251 24.6859 78.5171 25.0222 78.3013 25.3211C78.0937 25.6117 77.8114 25.84 77.4544 26.0061C77.0974 26.1721 76.6988 26.2552 76.2588 26.2552ZM80.8483 26.1306V17.9234H82.1311V26.1306H80.8483ZM79.4908 20.8376V19.5922H83.6505V20.8376H79.4908ZM87.6969 26.2552C87.0576 26.2552 86.4847 26.1099 85.9782 25.8193C85.4801 25.5204 85.0857 25.1177 84.7951 24.6112C84.5045 24.0965 84.3592 23.5111 84.3592 22.8552C84.3592 22.1993 84.5045 21.6181 84.7951 21.1116C85.0857 20.5969 85.4801 20.1942 85.9782 19.9036C86.4847 19.6047 87.0576 19.4553 87.6969 19.4553C88.3279 19.4553 88.8925 19.6047 89.3906 19.9036C89.8971 20.1942 90.2956 20.5969 90.5862 21.1116C90.8768 21.6181 91.0221 22.1993 91.0221 22.8552C91.0221 23.5111 90.8768 24.0965 90.5862 24.6112C90.2956 25.1177 89.8971 25.5204 89.3906 25.8193C88.8925 26.1099 88.3279 26.2552 87.6969 26.2552ZM87.6969 25.0845C88.0871 25.0845 88.4358 24.989 88.743 24.798C89.0502 24.5988 89.291 24.3331 89.4653 24.001C89.6397 23.6606 89.7227 23.2786 89.7144 22.8552C89.7227 22.4235 89.6397 22.0415 89.4653 21.7094C89.291 21.369 89.0502 21.1033 88.743 20.9124C88.4358 20.7214 88.0871 20.6259 87.6969 20.6259C87.3066 20.6259 86.9538 20.7256 86.6383 20.9248C86.3311 21.1158 86.0903 21.3815 85.9159 21.7219C85.7416 22.054 85.6586 22.4318 85.6669 22.8552C85.6586 23.2786 85.7416 23.6606 85.9159 24.001C86.0903 24.3331 86.3311 24.5988 86.6383 24.798C86.9538 24.989 87.3066 25.0845 87.6969 25.0845ZM92.4199 26.1306V19.5922H93.7151V21.6472L93.5905 21.149C93.6819 20.8335 93.8355 20.5471 94.0513 20.2897C94.2755 20.0323 94.5288 19.8289 94.811 19.6794C95.1016 19.53 95.4005 19.4553 95.7077 19.4553C95.8489 19.4553 95.9817 19.4677 96.1063 19.4926C96.2391 19.5175 96.3429 19.5466 96.4176 19.5798L96.0814 20.9746C95.9817 20.9331 95.8696 20.8999 95.7451 20.875C95.6289 20.8418 95.5126 20.8252 95.3964 20.8252C95.1722 20.8252 94.9563 20.8709 94.7488 20.9622C94.5495 21.0452 94.371 21.1656 94.2133 21.3234C94.0638 21.4728 93.9434 21.6513 93.8521 21.8589C93.7608 22.0581 93.7151 22.2782 93.7151 22.5189V26.1306H92.4199ZM100.214 26.2552C99.5418 26.2552 98.944 26.114 98.421 25.8317C97.9062 25.5411 97.4994 25.1467 97.2005 24.6486C96.9099 24.1504 96.7646 23.5775 96.7646 22.9299C96.7646 22.4152 96.8476 21.9461 97.0137 21.5226C97.1797 21.0992 97.408 20.7339 97.6986 20.4267C97.9975 20.1112 98.3504 19.8704 98.7572 19.7043C99.1724 19.53 99.6207 19.4428 100.102 19.4428C100.526 19.4428 100.92 19.5258 101.285 19.6919C101.651 19.8496 101.966 20.0696 102.232 20.3519C102.506 20.6342 102.713 20.9705 102.855 21.3607C103.004 21.7426 103.075 22.1619 103.066 22.6186L103.054 23.1666H97.7111L97.4246 22.1453H101.945L101.759 22.357V22.0581C101.734 21.7842 101.642 21.5392 101.485 21.3234C101.327 21.1075 101.128 20.9373 100.887 20.8127C100.646 20.6882 100.385 20.6259 100.102 20.6259C99.6539 20.6259 99.2761 20.7131 98.9689 20.8875C98.6617 21.0535 98.4293 21.3026 98.2715 21.6347C98.1138 21.9585 98.0349 22.3612 98.0349 22.8427C98.0349 23.2994 98.1304 23.6979 98.3213 24.0383C98.5123 24.3704 98.7821 24.6278 99.1308 24.8105C99.4796 24.9931 99.8822 25.0845 100.339 25.0845C100.663 25.0845 100.962 25.0305 101.236 24.9226C101.518 24.8146 101.821 24.6195 102.145 24.3372L102.792 25.2464C102.593 25.4456 102.348 25.62 102.058 25.7694C101.775 25.9189 101.472 26.0393 101.148 26.1306C100.833 26.2136 100.522 26.2552 100.214 26.2552Z" fill="white"/>
<path d="M25.6538 10.6869C25.6142 10.6424 24.1876 10.7044 22.9462 12.0582C21.7049 13.4108 21.8958 14.9623 21.9238 15.0021C21.9517 15.0419 23.6939 15.1039 24.806 13.5301C25.9181 11.9564 25.6934 10.7325 25.6538 10.6869ZM29.513 24.4153C29.4571 24.303 26.8055 22.9715 27.0524 20.4114C27.2993 17.8501 29.003 17.148 29.0297 17.072C29.0565 16.9959 28.3345 16.1476 27.5694 15.7182C27.0077 15.4154 26.386 15.242 25.7493 15.2104C25.6235 15.2069 25.1868 15.0992 24.2889 15.3461C23.6974 15.5087 22.364 16.0353 21.9972 16.0563C21.6292 16.0774 20.5345 15.4456 19.3572 15.2782C18.6037 15.132 17.8049 15.4315 17.2331 15.662C16.6625 15.8914 15.5771 16.5443 14.8178 18.2795C14.0586 20.0135 14.4557 22.7609 14.7398 23.615C15.024 24.468 15.4677 25.8662 16.2223 26.8865C16.893 28.0379 17.7827 28.8371 18.1542 29.1085C18.5257 29.38 19.5738 29.5602 20.3004 29.1869C20.885 28.8265 21.9401 28.6194 22.357 28.6346C22.7727 28.6498 23.5926 28.8148 24.4322 29.2653C25.0971 29.4958 25.726 29.3999 26.356 29.1425C26.986 28.8839 27.8978 27.9033 28.9622 25.9154C29.3663 24.991 29.5503 24.4914 29.513 24.4153Z" fill="white"/>
</svg>
