<svg width="273" height="79" viewBox="0 0 273 79" fill="none" xmlns="http://www.w3.org/2000/svg">
<g clip-path="url(#clip0_365_541)">
<path d="M47.3592 74.3267C60.3427 72.0331 71.0664 70.1352 71.1896 70.1091L71.4135 70.0616L59.1557 55.4813C52.414 47.4621 46.898 40.8698 46.898 40.8318C46.898 40.7599 59.5552 5.90452 59.6263 5.78052C59.6501 5.73906 68.2637 20.6103 80.5062 41.8294C91.9679 61.6951 101.417 78.0744 101.505 78.2279L101.665 78.5069L62.7089 78.5019L23.7527 78.4969L47.3592 74.3267ZM196.751 70.8006C190.822 70.4204 187.373 67.0437 186.459 60.7234C186.216 59.0421 186.215 58.9985 186.19 48.0835L186.166 37.5196H188.79H191.415L191.435 47.7376C191.454 56.9468 191.466 58.0266 191.554 58.6744C191.911 61.3036 192.622 63.0717 193.833 64.3408C194.803 65.3565 195.937 65.9512 197.508 66.2668C198.249 66.4156 200.357 66.4159 201.033 66.2674C202.625 65.9169 203.901 65.224 205.027 64.0985C206.311 62.8157 207.26 60.9957 207.719 58.9376L207.874 58.244L207.891 47.9395L207.909 37.635H210.588H213.267V53.8339V70.0329H210.616H207.964V67.4628C207.964 65.7165 207.945 64.899 207.904 64.9126C207.871 64.9235 207.735 65.1318 207.601 65.3755C206.688 67.0421 205.165 68.5662 203.497 69.4844C201.497 70.585 199.492 70.9762 196.751 70.8006ZM256.94 70.7744C254.847 70.617 252.643 69.8974 250.842 68.783C247.045 66.4343 244.798 62.5628 244.14 57.235C243.912 55.3914 243.885 52.9149 244.075 51.3484C244.499 47.8479 245.875 44.4116 247.834 41.9584C248.336 41.3295 249.475 40.1904 250.104 39.6883C251.802 38.3325 253.788 37.3843 255.897 36.923C257.126 36.6541 259.29 36.5279 260.596 36.6489C263.875 36.9529 266.881 38.497 268.924 40.9274C270.999 43.3966 272.14 46.8469 272.286 51.0956C272.309 51.7614 272.314 52.9288 272.298 53.6897L272.269 55.0732L260.783 55.0878L249.297 55.1023V55.6149C249.297 57.1753 249.676 58.9525 250.332 60.4646C250.897 61.7686 251.871 63.1925 252.668 63.8816C254.302 65.2944 256.303 66.1401 258.491 66.3436C259.303 66.4191 261.371 66.3396 262.296 66.1975C264.935 65.792 267.443 64.7571 269.469 63.2382C269.708 63.0595 269.936 62.8925 269.976 62.8672C270.035 62.8301 270.049 63.297 270.048 65.2595L270.046 67.698L269.503 68.0337C267.211 69.4511 264.586 70.3613 261.806 70.702C260.977 70.8036 257.932 70.849 256.94 70.7744ZM266.937 50.2081C266.937 47.5944 265.835 44.6908 264.277 43.1957C263.164 42.1287 261.819 41.4766 260.221 41.229C259.465 41.1119 257.871 41.157 257.073 41.3181C255.388 41.6587 253.993 42.3997 252.777 43.6014C251.497 44.8661 250.538 46.4021 249.934 48.1522C249.717 48.7815 249.464 49.8147 249.385 50.3894L249.347 50.6632H258.142H266.937V50.2081ZM111.129 69.9607C111.142 69.9211 115.043 59.6743 119.797 47.1901L128.44 24.4916L131.217 24.4915L133.994 24.4913L134.224 25.0822C134.928 26.8879 151.527 69.9835 151.527 70.0059C151.527 70.0207 150.198 70.0326 148.573 70.0323L145.619 70.0317L143.226 63.6622L140.834 57.2927L131.201 57.2926L121.568 57.2925L121.485 57.5087C121.439 57.6276 120.417 60.4937 119.213 63.8777L117.026 70.0306L114.065 70.0316C111.722 70.0324 111.11 70.0177 111.129 69.9607ZM139.076 52.4319C139.076 52.4218 137.466 48.0572 135.498 42.7327C131.817 32.7716 131.611 32.1723 131.32 30.5731C131.183 29.8232 131.114 29.8023 131.033 30.4866C130.976 30.9757 130.725 32.0701 130.531 32.6772C130.435 32.9784 128.778 37.5284 126.847 42.7882C124.917 48.0481 123.338 52.3738 123.338 52.401C123.338 52.4281 126.879 52.4503 131.207 52.4503C135.535 52.4503 139.076 52.442 139.076 52.4319ZM153.314 69.2032V68.3736L162.912 55.1804L172.509 41.9873L163.819 41.9584L155.13 41.9296L155.115 39.7246L155.1 37.5196H167.668H180.236V38.2643V39.0091L170.637 52.2742C165.358 59.57 161.039 65.5516 161.039 65.5666C161.039 65.5816 165.306 65.5939 170.522 65.5939H180.005V67.8133V70.0328H166.66H153.314V69.2032ZM223.74 69.9943C223.719 69.9732 223.701 62.6577 223.701 53.7377V37.5196H226.324H228.947V40.8631C228.947 42.7021 228.97 44.2067 228.997 44.2067C229.024 44.2067 229.152 43.9057 229.281 43.5378C229.87 41.8519 230.893 40.2766 232.211 39.0246C233.398 37.8967 234.754 37.2222 236.355 36.9641C236.805 36.8916 237.185 36.8778 238.084 36.9012C239.214 36.9306 239.804 37.0132 240.491 37.2377L240.707 37.3083V40.0309V42.7535L240.088 42.4433C238.993 41.8954 237.913 41.6785 236.614 41.746C235.769 41.79 235.215 41.8985 234.539 42.152C233.149 42.6737 232.022 43.5945 231.234 44.8515C230.093 46.6711 229.28 49.01 229.04 51.1597C228.997 51.5455 228.971 54.6873 228.961 60.8812L228.946 70.0328H226.362C224.941 70.0328 223.761 70.0155 223.74 69.9943ZM0.607422 69.8804C0.607422 69.8599 6.38322 59.8335 13.4425 47.5995L26.2776 25.3559L41.2354 12.8032C49.4622 5.89922 56.2154 0.242046 56.2425 0.231729C56.2696 0.221414 56.1613 0.493797 56.002 0.837027C55.8426 1.18026 48.5337 16.8573 39.7599 35.6749L23.8075 69.8886L12.2075 69.9032C5.82745 69.9112 0.607422 69.9009 0.607422 69.8804Z" fill="#0089D6"/>
</g>
<defs>
<clipPath id="clip0_365_541">
<rect width="271.7" height="78.2755" fill="white" transform="translate(0.609375 0.231445)"/>
</clipPath>
</defs>
</svg>
