<svg width="312" height="101" viewBox="0 0 312 101" fill="none" xmlns="http://www.w3.org/2000/svg">
<path d="M49.2201 23.7215H37.8296C34.3811 23.7215 31.6641 21.0045 31.6641 17.556V6.16554C31.6641 2.82152 34.3811 0 37.8296 0H49.2201C52.5641 0 55.3856 2.71702 55.3856 6.16554V17.556C55.3856 21.0045 52.6685 23.7215 49.2201 23.7215Z" fill="#406EB3"/>
<path d="M19.646 49.3243H6.89699C3.03052 49.3243 0 46.1893 0 42.4273V29.5737C0 25.8117 3.13499 22.6768 6.89699 22.6768H19.7505C23.617 22.6768 26.6475 25.8117 26.6475 29.5737V42.4273C26.6475 46.2938 23.5125 49.3243 19.646 49.3243Z" fill="#632678"/>
<path d="M18.496 75.9719H10.6585C8.3595 75.9719 6.47852 74.0909 6.47852 71.7919V63.9544C6.47852 61.6554 8.3595 59.7744 10.6585 59.7744H18.496C20.795 59.7744 22.676 61.6554 22.676 63.9544V71.7919C22.676 74.0909 20.795 75.9719 18.496 75.9719Z" fill="#982881"/>
<path d="M39.5001 100.738H30.1996C27.4826 100.738 25.1836 98.5432 25.1836 95.7218V86.4212C25.1836 83.7042 27.3781 81.4053 30.1996 81.4053H39.5001C42.2171 81.4053 44.5161 83.5997 44.5161 86.4212V95.7218C44.5161 98.5432 42.3216 100.738 39.5001 100.738Z" fill="#BA2F7D"/>
<path d="M73.4636 28.4239H67.0891C65.2081 28.4239 63.6406 26.8564 63.6406 24.9754V18.6008C63.6406 16.7198 65.2081 15.1523 67.0891 15.1523H73.4636C75.3446 15.1523 76.9121 16.7198 76.9121 18.6008V24.9754C77.0168 26.8564 75.4491 28.4239 73.4636 28.4239Z" fill="#BA2F7D"/>
<path d="M214.121 32.7086C216.211 32.7086 217.779 31.0366 217.779 29.0511C217.779 26.9611 216.107 25.3936 214.121 25.3936C212.031 25.3936 210.359 27.0655 210.359 29.0511C210.359 31.0366 212.031 32.7086 214.121 32.7086Z" fill="#26478D"/>
<path d="M79.0014 72.2096C78.4789 73.0456 77.5384 73.4636 76.4934 73.4636C75.9709 73.4636 75.2394 73.3589 74.8214 73.0456C73.9854 72.5231 73.4629 71.4781 73.4629 70.4331C73.4629 69.9106 73.5676 69.3881 73.8809 68.9701L82.4499 55.4896L73.8809 42.0091C73.5673 41.5911 73.4629 40.9641 73.4629 40.5461C73.4629 39.5011 73.9854 38.4561 74.9259 37.9336C75.4484 37.62 75.9709 37.5156 76.4934 37.5156C77.5384 37.5156 78.4789 37.9336 79.1059 38.7696L86.1074 49.8466L93.2134 38.7696C93.7359 37.9336 94.7809 37.5156 95.8259 37.5156C96.3484 37.5156 96.8709 37.6202 97.3934 37.9336C98.3339 38.4561 98.8564 39.5011 98.8564 40.5461C98.8564 41.0686 98.7519 41.5911 98.4384 42.0091L89.8694 55.4896L98.4384 68.9701C98.7519 69.3881 98.8564 69.9106 98.8564 70.4331C98.8564 71.4781 98.3339 72.6276 97.4979 73.0456C96.9754 73.3592 96.3484 73.4636 95.8259 73.4636C94.7809 73.4636 93.9449 73.0456 93.3179 72.2096L86.2119 61.2371L79.0014 72.2096Z" fill="#26478D"/>
<path d="M109.62 41.5911C112.859 38.6651 117.248 36.8887 121.951 36.8887C132.296 36.8887 140.447 45.1442 140.447 55.3852C140.447 65.5217 132.192 73.7772 121.951 73.7772C117.248 73.7772 112.859 72.0007 109.62 69.0746V84.8542C109.62 86.4217 108.157 87.7802 106.589 87.7802C105.126 87.7802 103.559 86.4217 103.559 84.8542V40.1282C103.559 38.5606 105.022 37.2021 106.589 37.2021C108.261 37.2021 109.62 38.5606 109.62 40.1282V41.5911ZM121.846 43.0542C114.949 43.0542 109.515 48.4882 109.515 55.3852C109.515 62.2822 114.949 67.7162 121.846 67.7162C128.743 67.7162 134.177 62.2822 134.177 55.3852C134.282 48.4882 128.848 43.0542 121.846 43.0542Z" fill="#26478D"/>
<path d="M192.803 52.0412V70.5377C192.803 72.1052 191.34 73.4636 189.773 73.4636C188.101 73.4636 186.742 72.1052 186.742 70.5377V40.1282C186.742 38.5606 188.205 37.2021 189.773 37.2021C191.236 37.2021 192.699 38.4561 192.803 40.0237C195.311 38.1427 198.551 36.9932 201.999 36.9932C203.88 36.9932 205.343 38.4561 205.343 40.0237C205.343 41.6956 203.88 43.1586 201.999 43.1586C197.297 43.2633 192.803 44.9351 192.803 52.0412Z" fill="#26478D"/>
<path d="M214.12 37.2021C212.448 37.2021 211.09 38.5607 211.09 40.1282V70.6422C211.09 72.2097 212.553 73.5682 214.12 73.5682C215.583 73.5682 217.151 72.2097 217.151 70.6422V40.1282C217.151 38.5607 215.688 37.2021 214.12 37.2021Z" fill="#26478D"/>
<path d="M252.995 40.1282C252.995 38.5606 254.458 37.2021 256.026 37.2021C257.489 37.2021 259.056 38.5606 259.056 40.1282V70.6422C259.056 72.2096 257.593 73.5682 256.026 73.5682C254.354 73.5682 252.995 72.2096 252.995 70.6422V69.1791C249.651 72.1052 245.367 73.8817 240.664 73.8817C230.319 73.8817 222.168 65.6262 222.168 55.3852C222.168 45.2486 230.423 36.9932 240.664 36.9932C245.367 36.9932 249.651 38.7696 252.995 41.6956V40.1282ZM240.664 67.7162C247.561 67.7162 252.995 62.2822 252.995 55.3852C252.995 48.4882 247.561 43.0541 240.664 43.0541C233.767 43.0541 228.333 48.4882 228.333 55.3852C228.333 62.2822 233.767 67.7162 240.664 67.7162Z" fill="#26478D"/>
<path d="M290.092 52.4592C290.092 47.3387 285.703 42.9496 280.582 42.9496C275.671 42.9496 271.073 44.9352 271.073 52.1457V70.6422C271.073 72.2096 269.61 73.5682 268.042 73.5682C266.37 73.5682 265.012 72.2096 265.012 70.6422V40.1282C265.012 38.5606 266.475 37.2021 268.042 37.2021C269.505 37.2021 270.968 38.4561 271.073 40.0237C273.685 38.0381 276.925 36.9932 280.478 36.9932C288.733 36.9932 296.153 43.4722 296.153 51.6232V70.6422C296.153 72.2096 294.69 73.5682 293.122 73.5682C291.45 73.5682 290.092 72.2096 290.092 70.6422V52.4592Z" fill="#26478D"/>
<path d="M71.6873 54.3401C71.5827 44.9351 63.2228 36.9932 53.2953 36.9932C42.9498 36.9932 34.7988 45.2486 34.7988 55.3852C34.7988 65.7307 43.0543 73.8817 53.2953 73.8817C58.2068 73.8817 62.8048 72.0007 66.1488 68.6567C66.7758 68.1342 67.1938 67.1936 67.1938 66.3577C67.1938 64.6856 65.7308 63.3272 64.1633 63.3272C63.2228 63.3272 62.3868 63.8497 61.7598 64.5812C59.6698 66.7757 56.6393 67.8207 53.3998 67.8207C47.2343 67.8207 42.2183 63.6407 41.1733 57.7886H68.7613C68.7613 57.7886 68.7613 57.7886 68.866 57.7886H68.9703H69.0749C69.1796 57.7886 69.2839 57.7886 69.3885 57.684C70.6425 57.1614 71.6873 55.9076 71.6873 54.3401ZM53.2953 43.0541C58.8338 43.0541 63.4318 46.6072 64.9993 51.6232H41.4868C43.0543 46.6072 47.6523 43.0541 53.2953 43.0541Z" fill="#26478D"/>
<path d="M181.621 54.3401C181.516 44.9351 173.052 36.9932 163.229 36.9932C152.883 36.9932 144.732 45.2486 144.732 55.3852C144.732 65.7307 152.988 73.8817 163.229 73.8817C168.14 73.8817 172.738 72.0007 176.082 68.6567C176.709 68.1342 177.127 67.1936 177.127 66.3577C177.127 64.6856 175.664 63.3272 174.097 63.3272C173.156 63.3272 172.32 63.8497 171.693 64.5812C169.603 66.7757 166.573 67.8207 163.333 67.8207C157.168 67.8207 152.152 63.6407 151.107 57.7886H178.695C178.695 57.7886 178.695 57.7886 178.799 57.7886H178.904C179.008 57.7886 179.113 57.7886 179.113 57.7886H179.217C180.471 57.2661 181.621 55.9076 181.621 54.3401ZM163.229 43.0541C168.767 43.0541 173.365 46.6072 174.933 51.6232H151.42C152.988 46.6072 157.586 43.0541 163.229 43.0541Z" fill="#26478D"/>
<path d="M302.632 73.5679C302.319 73.5679 302.109 73.3589 302.109 73.0454V67.9249H300.96C300.647 67.9249 300.438 67.716 300.438 67.4024C300.438 67.0888 300.647 66.8799 300.96 66.8799H304.304C304.617 66.8799 304.826 67.0888 304.826 67.4024C304.826 67.716 304.617 67.9249 304.304 67.9249H303.154V73.0454C303.154 73.359 302.945 73.5679 302.632 73.5679Z" fill="#26478D"/>
<path d="M308.589 73.5679C308.276 73.5679 308.171 73.359 308.067 73.1499L306.604 68.9699V73.0454C306.604 73.359 306.395 73.5679 306.081 73.5679C305.768 73.5679 305.559 73.3589 305.559 73.0454V67.6114C305.559 67.1934 305.872 66.8799 306.29 66.8799C306.604 66.8799 306.917 67.0888 307.022 67.4024L308.485 71.6869L309.948 67.4024C310.052 67.0888 310.366 66.8799 310.679 66.8799C311.097 66.8799 311.411 67.1935 311.411 67.6114V73.0454C311.411 73.359 311.202 73.5679 310.888 73.5679C310.575 73.5679 310.366 73.3589 310.366 73.0454V68.9699C310.157 69.5969 309.843 70.6419 309.53 71.4779C309.007 73.1499 308.903 73.1499 308.903 73.1499C309.007 73.4635 308.798 73.5679 308.589 73.5679Z" fill="#26478D"/>
</svg>
