<svg width="38" height="30" viewBox="0 0 38 30" fill="none" xmlns="http://www.w3.org/2000/svg">
<g id="download (1) 1">
<g id="Group">
<g id="Group_2">
<path id="Stroke-1" d="M8.22735 11.1197C7.68886 11.1197 7.25234 10.6832 7.25234 10.1447C7.25234 9.60621 7.68886 9.16969 8.22735 9.16969H33.9873C35.2473 9.16969 36.2682 10.192 36.2682 11.4524V26.3678C36.2682 27.6282 35.2473 28.6505 33.9873 28.6505H3.44919C2.18919 28.6505 1.16797 27.6282 1.16797 26.3678V3.63328C1.16797 2.37289 2.18885 1.35059 3.44913 1.35059L33.9876 1.3592C35.2473 1.35953 36.2682 2.38173 36.2682 3.64175V6.00837C36.2682 6.54684 35.8318 6.98343 35.2933 6.98351C34.7548 6.98358 34.3183 6.54712 34.3182 6.00865L34.3178 3.64189C34.3178 3.45787 34.1694 3.30924 33.987 3.30919L3.44885 3.30058C3.26642 3.30058 3.11798 3.44923 3.11798 3.63326L3.11832 26.3678C3.11832 26.5518 3.26676 26.7005 3.44919 26.7005H33.9873C34.1697 26.7005 34.3182 26.5518 34.3182 26.3678V11.4524C34.3182 11.2683 34.1697 11.1197 33.9873 11.1197H8.22735Z" fill="white"/>
</g>
</g>
</g>
</svg>
