<svg width="136" height="44" viewBox="0 0 136 44" fill="none" xmlns="http://www.w3.org/2000/svg">
<g id="download 1">
<path id="Vector" d="M16.446 4.25928H5.96283C5.29083 4.25928 4.61883 4.79688 4.48443 5.46887L0.318041 32.3488C0.183641 32.8864 0.58684 33.2896 1.12444 33.2896H6.09723C6.76923 33.2896 7.44123 32.752 7.57563 32.08L8.65083 24.8224C8.78523 24.1504 9.32283 23.6128 10.1292 23.6128H13.4892C20.3436 23.6128 24.3756 20.2528 25.4508 13.6672C25.854 10.8448 25.4508 8.56006 24.1068 6.94727C22.6284 5.20007 19.9404 4.25928 16.446 4.25928ZM17.6556 14.0704C17.118 17.8336 14.1612 17.8336 11.4732 17.8336H9.86042L10.9356 10.8448C10.9356 10.4416 11.3388 10.1729 11.742 10.1729H12.414C14.2956 10.1729 16.0428 10.1729 16.9836 11.248C17.6556 11.7856 17.9244 12.7264 17.6556 14.0704Z" fill="#003087"/>
<path id="Vector_2" d="M47.6274 13.9362H42.6546C42.2514 13.9362 41.8482 14.205 41.8482 14.6082L41.5794 15.9521L41.1762 15.4146C40.101 13.8018 37.6818 13.2642 35.2626 13.2642C29.7522 13.2642 25.0483 17.4305 24.1075 23.3441C23.5699 26.3009 24.2419 29.1233 25.9891 31.0049C27.4675 32.7521 29.7523 33.5585 32.3058 33.5585C36.741 33.5585 39.2946 30.7361 39.2946 30.7361L39.0258 32.0801C38.8914 32.6177 39.2946 33.1553 39.8322 33.1553H44.4018C45.0738 33.1553 45.7458 32.6177 45.8802 31.9457L48.5682 14.7426C48.7026 14.4738 48.165 13.9362 47.6274 13.9362ZM40.773 23.6129C40.2354 26.4353 38.085 28.4513 35.1282 28.4513C33.6498 28.4513 32.5746 28.0481 31.7682 27.1073C30.9618 26.1665 30.693 24.9569 30.9618 23.6129C31.365 20.7905 33.7842 18.7745 36.6066 18.7745C38.085 18.7745 39.1602 19.3121 39.9666 20.1185C40.6386 21.0593 40.9074 22.2689 40.773 23.6129Z" fill="#003087"/>
<path id="Vector_3" d="M74.3734 13.936H69.4006C68.863 13.936 68.4598 14.2048 68.191 14.608L61.2023 24.8224L58.2455 15.0112C58.1111 14.3392 57.4391 13.936 56.9015 13.936H51.9287C51.3911 13.936 50.8535 14.4736 51.1223 15.1456L56.6327 31.408L51.3911 38.6655C50.9879 39.2031 51.3911 40.0095 52.0631 40.0095H57.0359C57.5735 40.0095 57.9767 39.7407 58.2455 39.3375L75.0454 15.1456C75.4486 14.7424 75.0454 13.936 74.3734 13.936Z" fill="#003087"/>
<path id="Vector_4" d="M91.0388 4.25928H80.5556C79.8836 4.25928 79.2116 4.79688 79.0772 5.46887L74.9108 32.2144C74.7764 32.752 75.1796 33.1552 75.7172 33.1552H81.0932C81.6308 33.1552 82.034 32.752 82.034 32.3488L83.2436 24.688C83.378 24.016 83.9156 23.4784 84.722 23.4784H88.082C94.9364 23.4784 98.9684 20.1184 100.044 13.5328C100.447 10.7104 100.044 8.42566 98.6996 6.81287C97.0868 5.20007 94.5332 4.25928 91.0388 4.25928ZM92.2484 14.0704C91.7108 17.8336 88.754 17.8336 86.066 17.8336H84.4532L85.5284 10.8448C85.5284 10.4416 85.9316 10.1729 86.3348 10.1729H87.0068C88.8884 10.1729 90.6356 10.1729 91.5764 11.248C92.2484 11.7856 92.3828 12.7264 92.2484 14.0704Z" fill="#009CDE"/>
<path id="Vector_5" d="M122.219 13.9362H117.246C116.843 13.9362 116.44 14.205 116.44 14.6082L116.171 15.9521L115.768 15.4146C114.693 13.8018 112.274 13.2642 109.854 13.2642C104.344 13.2642 99.6401 17.4305 98.6993 23.3441C98.1617 26.3009 98.8337 29.1233 100.581 31.0049C102.059 32.7521 104.344 33.5585 106.898 33.5585C111.333 33.5585 113.886 30.7361 113.886 30.7361L113.618 32.0801C113.483 32.6177 113.886 33.1553 114.424 33.1553H118.994C119.666 33.1553 120.338 32.6177 120.472 31.9457L123.16 14.7426C123.16 14.4738 122.757 13.9362 122.219 13.9362ZM115.23 23.6129C114.693 26.4353 112.542 28.4513 109.586 28.4513C108.107 28.4513 107.032 28.0481 106.226 27.1073C105.419 26.1665 105.15 24.9569 105.419 23.6129C105.822 20.7905 108.242 18.7745 111.064 18.7745C112.542 18.7745 113.618 19.3121 114.424 20.1185C115.23 21.0593 115.499 22.2689 115.23 23.6129Z" fill="#009CDE"/>
<path id="Vector_6" d="M128.133 4.93127L123.832 32.2144C123.697 32.752 124.101 33.1552 124.638 33.1552H128.939C129.611 33.1552 130.283 32.6176 130.417 31.9456L134.718 5.20007C134.852 4.66248 134.449 4.25928 133.912 4.25928H129.073C128.536 4.25928 128.267 4.52808 128.133 4.93127Z" fill="#009CDE"/>
</g>
</svg>
