<svg width="26" height="9" viewBox="0 0 26 9" fill="none" xmlns="http://www.w3.org/2000/svg">
<g clip-path="url(#clip0_2803_10828)">
<path d="M3.13906 1.1084H1.15773C1.03072 1.1084 0.903713 1.21 0.878311 1.33701L0.0908607 6.41731C0.0654591 6.51892 0.141664 6.59512 0.24327 6.59512H1.18313C1.31014 6.59512 1.43715 6.49351 1.46255 6.36651L1.66576 4.99483C1.69116 4.86782 1.79277 4.76621 1.94518 4.76621H2.58022C3.8757 4.76621 4.63775 4.13118 4.84097 2.8865C4.91717 2.35307 4.84097 1.92125 4.58695 1.61643C4.30753 1.28621 3.7995 1.1084 3.13906 1.1084ZM3.36767 2.96271C3.26606 3.67395 2.70723 3.67395 2.1992 3.67395H1.89438L2.09759 2.35307C2.09759 2.27687 2.17379 2.22606 2.25 2.22606H2.37701C2.73263 2.22606 3.06285 2.22606 3.24066 2.42928C3.36767 2.53088 3.41847 2.70869 3.36767 2.96271Z" fill="#003087"/>
<path d="M9.03413 2.93707H8.09427C8.01806 2.93707 7.94186 2.98787 7.94186 3.06407L7.89105 3.31809L7.81485 3.21648C7.61163 2.91166 7.1544 2.81006 6.69718 2.81006C5.65571 2.81006 4.76665 3.5975 4.58884 4.71517C4.48723 5.274 4.61424 5.80743 4.94446 6.16306C5.22388 6.49327 5.65571 6.64568 6.13834 6.64568C6.97659 6.64568 7.45922 6.11225 7.45922 6.11225L7.40842 6.36627C7.38302 6.46787 7.45922 6.56948 7.56083 6.56948H8.42449C8.55149 6.56948 8.6785 6.46787 8.7039 6.34087L9.21194 3.08948C9.23734 3.03867 9.13573 2.93707 9.03413 2.93707ZM7.73864 4.76597C7.63704 5.2994 7.23061 5.68043 6.67177 5.68043C6.39236 5.68043 6.18914 5.60422 6.03673 5.42641C5.88432 5.2486 5.83352 5.01999 5.88432 4.76597C5.96053 4.23254 6.41776 3.85152 6.95119 3.85152C7.23061 3.85152 7.43382 3.95313 7.58623 4.10553C7.71324 4.28335 7.76404 4.51196 7.73864 4.76597Z" fill="#003087"/>
<path d="M14.0877 2.93701H13.1478C13.0462 2.93701 12.97 2.98781 12.9192 3.06402L11.5983 4.99453L11.0395 3.14022C11.0141 3.01322 10.8871 2.93701 10.7855 2.93701H9.84561C9.744 2.93701 9.6424 3.03862 9.6932 3.16563L10.7347 6.23921L9.744 7.61089C9.6678 7.71249 9.744 7.8649 9.87101 7.8649H10.8109C10.9125 7.8649 10.9887 7.8141 11.0395 7.73789L14.2147 3.16563C14.2909 3.08942 14.2147 2.93701 14.0877 2.93701Z" fill="#003087"/>
<path d="M17.2367 1.1084H15.2554C15.1284 1.1084 15.0014 1.21 14.976 1.33701L14.1885 6.39191C14.1631 6.49351 14.2393 6.56972 14.3409 6.56972H15.357C15.4586 6.56972 15.5348 6.49351 15.5348 6.41731L15.7634 4.96942C15.7888 4.84242 15.8904 4.74081 16.0428 4.74081H16.6779C17.9734 4.74081 18.7354 4.10577 18.9386 2.8611C19.0148 2.32767 18.9386 1.89584 18.6846 1.59103C18.3798 1.28621 17.8972 1.1084 17.2367 1.1084ZM17.4653 2.96271C17.3637 3.67395 16.8049 3.67395 16.2969 3.67395H15.992L16.1952 2.35307C16.1952 2.27687 16.2715 2.22606 16.3477 2.22606H16.4747C16.8303 2.22606 17.1605 2.22606 17.3383 2.42928C17.4653 2.53088 17.4907 2.70869 17.4653 2.96271Z" fill="#009CDE"/>
<path d="M23.1318 2.93707H22.1919C22.1157 2.93707 22.0395 2.98787 22.0395 3.06407L21.9887 3.31809L21.9125 3.21648C21.7093 2.91166 21.2521 2.81006 20.7948 2.81006C19.7534 2.81006 18.8643 3.5975 18.6865 4.71517C18.5849 5.274 18.7119 5.80743 19.0421 6.16306C19.3215 6.49327 19.7534 6.64568 20.236 6.64568C21.0743 6.64568 21.5569 6.11225 21.5569 6.11225L21.5061 6.36627C21.4807 6.46787 21.5569 6.56948 21.6585 6.56948H22.5221C22.6492 6.56948 22.7762 6.46787 22.8016 6.34087L23.3096 3.08948C23.3096 3.03867 23.2334 2.93707 23.1318 2.93707ZM21.8109 4.76597C21.7093 5.2994 21.3029 5.68043 20.744 5.68043C20.4646 5.68043 20.2614 5.60422 20.109 5.42641C19.9566 5.2486 19.9058 5.01999 19.9566 4.76597C20.0328 4.23254 20.49 3.85152 21.0234 3.85152C21.3029 3.85152 21.5061 3.95313 21.6585 4.10553C21.8109 4.28335 21.8617 4.51196 21.8109 4.76597Z" fill="#009CDE"/>
<path d="M24.2514 1.23541L23.4385 6.39191C23.4131 6.49351 23.4893 6.56972 23.5909 6.56972H24.4038C24.5308 6.56972 24.6578 6.46811 24.6832 6.3411L25.496 1.28621C25.5215 1.1846 25.4452 1.1084 25.3436 1.1084H24.4292C24.3276 1.1084 24.2768 1.1592 24.2514 1.23541Z" fill="#009CDE"/>
</g>
<defs>
<clipPath id="clip0_2803_10828">
<rect width="25.6556" height="8.12848" fill="white" transform="translate(0.03125 0.396973)"/>
</clipPath>
</defs>
</svg>
