<svg width="19" height="19" viewBox="0 0 19 19" fill="none" xmlns="http://www.w3.org/2000/svg">
<path d="M9.21562 18.432C6.77149 18.432 4.42746 17.4611 2.69919 15.7327C0.970929 14.0044 0 11.6603 0 9.21602C0 6.77178 0.970929 4.42765 2.69919 2.69931C4.42746 0.97097 6.77149 0 9.21562 0C11.6598 0 14.0038 0.97097 15.7321 2.69931C17.4603 4.42765 18.4312 6.77178 18.4312 9.21602C18.4312 11.6603 17.4603 14.0044 15.7321 15.7327C14.0038 17.4611 11.6598 18.432 9.21562 18.432ZM9.50592 3.53434C9.44067 3.49324 9.36749 3.46636 9.29116 3.45545C9.21482 3.44455 9.13704 3.44987 9.0629 3.47107C8.98876 3.49227 8.91992 3.52887 8.86088 3.57848C8.80185 3.62809 8.75394 3.6896 8.72029 3.75898L7.33794 6.56065L4.2461 7.00993C4.14391 7.02399 4.04775 7.06653 3.96861 7.13268C3.88946 7.19883 3.83054 7.28593 3.79857 7.384C3.7666 7.48207 3.76288 7.58717 3.78783 7.68725C3.81279 7.78734 3.86541 7.87838 3.93968 7.94997L6.17908 10.1296L5.64918 13.21C5.63217 13.3112 5.64374 13.4152 5.6826 13.5103C5.72145 13.6053 5.78604 13.6876 5.8691 13.7479C5.95217 13.8082 6.05041 13.8442 6.15279 13.8517C6.25517 13.8593 6.35762 13.8381 6.44863 13.7906L9.21562 12.3368L11.9803 13.7895C12.0713 13.8374 12.1739 13.859 12.2764 13.8516C12.379 13.8443 12.4775 13.8084 12.5607 13.7479C12.6439 13.6875 12.7085 13.605 12.7472 13.5097C12.786 13.4144 12.7972 13.3102 12.7798 13.2089L12.2522 10.1296L14.4893 7.94881C14.5623 7.87689 14.6139 7.78604 14.6382 7.68646C14.6625 7.58687 14.6586 7.48249 14.6269 7.385C14.5952 7.28752 14.5369 7.20079 14.4587 7.13454C14.3805 7.06829 14.2854 7.02514 14.184 7.00993L11.091 6.56065L9.70866 3.75898C9.66364 3.66646 9.59335 3.58858 9.50592 3.53434Z" fill="#F36103"/>
</svg>
