<svg width="20" height="20" viewBox="0 0 20 20" fill="none" xmlns="http://www.w3.org/2000/svg">
<path d="M9.95295 19.9066C7.31327 19.9066 4.78169 18.8579 2.91515 16.9913C1.04861 15.1247 0 12.5931 0 9.95328C0 7.31351 1.04861 4.78185 2.91515 2.91525C4.78169 1.04865 7.31327 0 9.95295 0C12.5926 0 15.1242 1.04865 16.9908 2.91525C18.8573 4.78185 19.9059 7.31351 19.9059 9.95328C19.9059 12.5931 18.8573 15.1247 16.9908 16.9913C15.1242 18.8579 12.5926 19.9066 9.95295 19.9066ZM10.2665 3.81708C10.196 3.77269 10.117 3.74366 10.0345 3.73189C9.95208 3.72011 9.86808 3.72586 9.78801 3.74876C9.70794 3.77165 9.63359 3.81118 9.56983 3.86476C9.50607 3.91834 9.45433 3.98476 9.41798 4.0597L7.92504 7.08549L4.58582 7.57072C4.47546 7.5859 4.3716 7.63184 4.28613 7.70329C4.20065 7.77473 4.13701 7.86879 4.10249 7.97471C4.06796 8.08063 4.06394 8.19413 4.09089 8.30222C4.11785 8.41032 4.17468 8.50864 4.25489 8.58595L6.67346 10.9399L6.10116 14.2668C6.08279 14.3761 6.09529 14.4884 6.13725 14.5911C6.17921 14.6937 6.24897 14.7826 6.33868 14.8477C6.42839 14.9129 6.5345 14.9517 6.64507 14.9599C6.75564 14.968 6.86629 14.9451 6.96458 14.8938L9.95295 13.3237L12.9388 14.8926C13.0371 14.9444 13.1479 14.9677 13.2587 14.9597C13.3694 14.9518 13.4758 14.913 13.5657 14.8477C13.6555 14.7825 13.7253 14.6933 13.7671 14.5904C13.809 14.4876 13.8211 14.375 13.8023 14.2655L13.2325 10.9399L15.6485 8.58471C15.7274 8.50703 15.7831 8.40891 15.8093 8.30136C15.8356 8.19381 15.8314 8.08107 15.7971 7.97579C15.7629 7.87051 15.7 7.77684 15.6155 7.70529C15.5311 7.63375 15.4283 7.58715 15.3188 7.57072L11.9784 7.08549L10.4854 4.0597C10.4368 3.95977 10.3609 3.87566 10.2665 3.81708Z" fill="#F36103"/>
</svg>
