<svg width="15" height="15" viewBox="0 0 15 15" fill="none" xmlns="http://www.w3.org/2000/svg">
<path d="M7.37266 14.7457C5.41731 14.7457 3.54204 13.9689 2.1594 12.5862C0.77676 11.2036 0 9.32825 0 7.37285C0 5.41745 0.77676 3.54214 2.1594 2.15946C3.54204 0.77678 5.41731 0 7.37266 0C9.32801 0 11.2033 0.77678 12.5859 2.15946C13.9686 3.54214 14.7453 5.41745 14.7453 7.37285C14.7453 9.32825 13.9686 11.2036 12.5859 12.5862C11.2033 13.9689 9.32801 14.7457 7.37266 14.7457ZM7.6049 2.82749C7.5527 2.7946 7.49415 2.7731 7.43308 2.76438C7.37201 2.75566 7.30979 2.75991 7.25047 2.77687C7.19116 2.79383 7.13609 2.82311 7.08886 2.8628C7.04163 2.90249 7.0033 2.95169 6.97638 3.0072L5.87048 5.24855L3.39695 5.60798C3.3152 5.61922 3.23827 5.65325 3.17495 5.70618C3.11164 5.7591 3.06449 5.82877 3.03892 5.90723C3.01334 5.98569 3.01037 6.06976 3.03033 6.14983C3.0503 6.22991 3.09239 6.30274 3.15181 6.36001L4.94337 8.10369L4.51944 10.5681C4.50583 10.6491 4.51509 10.7322 4.54617 10.8083C4.57726 10.8843 4.62893 10.9501 4.69538 10.9984C4.76183 11.0466 4.84043 11.0754 4.92234 11.0814C5.00424 11.0875 5.08621 11.0705 5.15902 11.0325L7.37266 9.86948L9.58445 11.0316C9.65723 11.07 9.7393 11.0872 9.82136 11.0814C9.90342 11.0755 9.9822 11.0467 10.0488 10.9984C10.1153 10.9501 10.167 10.884 10.198 10.8078C10.229 10.7316 10.238 10.6482 10.224 10.5671L9.80195 8.10369L11.5917 6.35908C11.6501 6.30155 11.6913 6.22887 11.7108 6.1492C11.7302 6.06953 11.7271 5.98602 11.7017 5.90803C11.6764 5.83004 11.6298 5.76066 11.5672 5.70766C11.5046 5.65466 11.4285 5.62014 11.3474 5.60798L8.87299 5.24855L7.76709 3.0072C7.73108 2.93318 7.67484 2.87088 7.6049 2.82749Z" fill="#A4AFCE"/>
</svg>
