<svg width="42" height="42" viewBox="0 0 42 42" fill="none" xmlns="http://www.w3.org/2000/svg">
<path d="M23.2208 6.42136C23.7459 5.89645 24.4579 5.60156 25.2004 5.60156C25.9429 5.60156 26.6549 5.89645 27.18 6.42136L39.78 19.0214C40.3049 19.5464 40.5998 20.2585 40.5998 21.001C40.5998 21.7434 40.3049 22.4555 39.78 22.9806L27.18 35.5806C26.6519 36.0906 25.9446 36.3728 25.2105 36.3665C24.4763 36.3601 23.774 36.0656 23.2549 35.5465C22.7358 35.0273 22.4413 34.325 22.4349 33.5909C22.4285 32.8567 22.7107 32.1495 23.2208 31.6214L30.8004 23.801H4.20039C3.45778 23.801 2.74559 23.506 2.22049 22.9809C1.69539 22.4558 1.40039 21.7436 1.40039 21.001C1.40039 20.2584 1.69539 19.5462 2.22049 19.0211C2.74559 18.496 3.45778 18.201 4.20039 18.201H30.8004L23.2208 10.3806C22.6959 9.85549 22.401 9.14342 22.401 8.40096C22.401 7.6585 22.6959 6.94644 23.2208 6.42136Z" fill="white"/>
</svg>
